<?xml version="1.0" encoding="UTF-8"?><svg id="a" xmlns="http://www.w3.org/2000/svg" viewBox="0 0 330 330"><defs><style>.b{fill:#1496d3;}.c{fill:#40403f;}.d{fill:#fff;stroke:#000;stroke-miterlimit:10;}</style></defs><rect class="d" x="-6.12" y="-8.48" width="343.5" height="343.5"/><path class="b" d="M101.76,147.21c-.06-6.81-.08-13.6-.07-20.36l-1.86,.24c-.17-3.3-.17-6.6,0-9.9,4.48-.51,8.95-.98,13.42-1.41,.11,3.23,.03,6.47-.22,9.7l-2.27,.25c-.14,6.64-.21,13.3-.21,19.97l4.7-.67c0-2.1,.03-4.2,.09-6.29,.67-.15,1.31-.29,1.94-.41,.63-.12,1.29-.22,2-.29,.67-.08,1.33-.14,2-.18,.67-.04,1.33-.06,2-.07-.16,5.33-.3,10.69-.41,16.07-7.63,1.08-15.2,2.29-22.73,3.62-.13-1.65-.21-3.32-.23-5-.02-1.68,0-3.35,.05-5l1.8-.27Z"/><path class="b" d="M143.55,149.62c-.85,.71-1.77,1.33-2.74,1.86-1.6,.81-3.34,1.31-5.12,1.46-1.43,.21-2.88,.08-4.25-.37-1.25-.44-2.39-1.17-3.3-2.13-.98-1.05-1.76-2.27-2.29-3.6-.61-1.52-1.01-3.13-1.19-4.76-.26-2.14-.26-4.29,0-6.43,.24-2.08,.83-4.11,1.75-6,.86-1.78,2.12-3.34,3.68-4.56,1.67-1.25,3.68-1.98,5.76-2.07,1.25-.11,2.52,.02,3.72,.39,1.04,.33,2,.86,2.83,1.57,.79,.68,1.42,1.52,1.86,2.46,.44,.94,.71,1.96,.8,3,.1,1.23,.05,2.48-.15,3.7-.21,1.3-.72,2.54-1.49,3.61-.93,1.26-2.14,2.29-3.54,3-1.99,.97-4.13,1.59-6.33,1.83,.17,.62,.52,1.17,1,1.6,.7,.46,1.56,.63,2.38,.45,1.33-.13,2.61-.52,3.79-1.15,1.16-.6,2.24-1.35,3.21-2.22-.11,2.81-.24,5.6-.38,8.36Zm-6.11-18c-.03-.45-.2-.88-.48-1.24-.3-.35-.76-.52-1.22-.45-1.01,.14-1.85,.85-2.14,1.83-.54,1.44-.8,2.97-.77,4.51,1.35-.2,2.6-.8,3.6-1.73,.77-.76,1.16-1.83,1.05-2.91h-.04Z"/><path class="b" d="M149.38,122.88c.07-.89,.15-1.83,.24-2.82,.09-.99,.17-1.95,.24-2.87,3.13-1.29,6.32-2.52,9.55-3.71-.31,3-.62,6-.92,9l4.1-.14c-.06,1.4-.16,2.81-.31,4.22s-.34,2.83-.58,4.24l-4,.19c-.23,2.47-.46,4.94-.68,7.42-.05,.47-.07,.85-.08,1.14,0,.29,0,.51,0,.68,.02,.31,.14,.61,.35,.84,.29,.28,.71,.41,1.11,.33,.51-.04,1.02-.16,1.5-.35,.43-.16,.85-.35,1.25-.58-.27,2.73-.54,5.47-.8,8.22-.83,.43-1.69,.8-2.57,1.11-1.03,.39-2.11,.63-3.21,.73-2.12,.19-3.72-.22-4.8-1.23-1.18-1.23-1.85-2.87-1.88-4.58-.04-.47-.06-.93-.05-1.38,0-.45,.03-.95,.06-1.5,.26-3.45,.53-6.89,.82-10.32l-2.12,.14c0-2.9,.22-5.79,.64-8.66l2.14-.12Z"/><path class="b" d="M164.21,128.48c1.12-2.14,2.25-4.27,3.4-6.38l-2.56,.06c.15-3.55,.55-7.08,1.19-10.57h9.47c-.25,3.49-.7,6.97-1.35,10.41-.25,.32-.47,.65-.67,1-.42,.67-.89,1.38-1.4,2.14l-2,3.16c-2.01,.01-4.04,.07-6.08,.18Z"/><path class="b" d="M173.73,139.84c1.98-.3,4-.38,6-.21v1.27c.06,.45,.29,.86,.64,1.15,.62,.47,1.39,.67,2.16,.56,1.39,0,2.07-.59,2-1.66,0-.3-.08-.59-.24-.84-.26-.32-.61-.55-1-.68l-3-1.09c-.7-.26-1.37-.59-2-1-.63-.42-1.2-.93-1.68-1.52-.49-.6-.89-1.28-1.17-2-.31-.84-.48-1.72-.5-2.62-.1-1.53,.12-3.07,.66-4.51,.43-1.14,1.11-2.17,2-3,.84-.78,1.85-1.35,2.95-1.69,1.04-.32,2.12-.48,3.2-.48,1.02,0,2.03,.14,3,.43,.72,.22,1.39,.56,2,1l.15-.82c2.01-.2,4.04-.17,6.05,.1-.46,2.71-.91,5.42-1.36,8.14-2.1,.21-4.23,.21-6.33,0l.07-.43c.04-.21,.07-.42,.07-.63-.02-.39-.21-.76-.52-1-.41-.31-.92-.46-1.44-.43-.51-.04-1.01,.13-1.4,.47-.32,.31-.49,.75-.46,1.19,.02,.24,.09,.48,.2,.7,.19,.33,.51,.56,.88,.65l3.14,1.14c.69,.29,1.36,.62,2,1,.65,.38,1.24,.84,1.75,1.39,.53,.58,.95,1.26,1.23,2,.33,.84,.49,1.73,.48,2.63,.05,1.53-.22,3.06-.79,4.48-.48,1.11-1.18,2.12-2.06,2.95-.87,.8-1.89,1.41-3,1.79-1.08,.38-2.22,.6-3.37,.65-.98,.04-1.96-.05-2.91-.27-.81-.15-1.59-.46-2.27-.93l-.13,.89c-2,.35-4.03,.46-6.06,.31,.35-3.03,.71-6.06,1.06-9.08Z"/><path class="b" d="M203.71,139.48c1.03-5.77,2.08-11.52,3.17-17.23l-1.87-.07c.35-2.81,.86-5.59,1.54-8.34,4.76,.25,9.52,.56,14.27,.92,1.57,.08,3.11,.45,4.55,1.09,1.1,.5,2.06,1.25,2.82,2.19,.69,.88,1.16,1.91,1.39,3,.24,1.14,.34,2.3,.27,3.46-.08,1.55-.41,3.08-1,4.52-.58,1.41-1.43,2.68-2.5,3.76-1.12,1.12-2.47,1.99-3.95,2.55-1.72,.64-3.55,.91-5.38,.8l-3.93-.13-.72,3.69,3.63,.1c-.17,1.38-.4,2.76-.67,4.13s-.59,2.75-.94,4.14c-4.67-.06-9.31-.06-13.94,0,.13-1.42,.32-2.84,.57-4.25s.53-2.83,.85-4.24l1.84-.09Zm14-11.49c.7,.03,1.39-.22,1.9-.7,.62-.63,.95-1.48,.91-2.36,.09-.61-.1-1.22-.51-1.68-.42-.35-.94-.54-1.48-.55l-2.64-.15c-.36,1.77-.72,3.54-1.08,5.31l2.9,.13Z"/><path class="b" d="M231.09,121.91c.2-1.25,.44-2.49,.71-3.73s.61-2.47,1-3.7c3.71,.36,7.42,.75,11.13,1.18-2.25,8.47-4.43,17.01-6.55,25.64l1.81,.12c-.22,1.23-.47,2.45-.75,3.68-.28,1.23-.61,2.45-1,3.68-3.53-.19-7.06-.34-10.59-.46,2-8.83,4.04-17.59,6.11-26.26l-1.87-.15Z"/><path class="b" d="M252.33,149.75l.33-1.84c-.75,.7-1.63,1.25-2.6,1.6-.96,.35-1.98,.49-3,.42-1.2-.02-2.36-.42-3.33-1.12-.81-.64-1.45-1.47-1.87-2.41-.43-.98-.69-2.03-.77-3.1-.08-1.07-.08-2.14,0-3.21,.13-2.1,.58-4.16,1.33-6.12,.65-1.73,1.62-3.32,2.86-4.69,1.13-1.24,2.52-2.22,4.07-2.86,1.56-.63,3.26-.84,4.93-.62,1.22,.08,2.39,.48,3.4,1.17,.63,.46,1.18,1.02,1.63,1.65l1.14-1.54c2.13,.27,4.25,.56,6.37,.85-1.61,5.12-3.2,10.28-4.77,15.47l1.81,.19c-.27,1.17-.56,2.33-.89,3.49-.33,1.16-.71,2.32-1.16,3.48-3.18-.29-6.34-.56-9.48-.81Zm-.89-7c.41,0,.81-.12,1.14-.36,.49-.34,.9-.77,1.21-1.28,.44-.71,.8-1.47,1.05-2.26,.34-1.06,.57-2.16,.66-3.27,.07-.61,0-1.22-.21-1.8-.14-.49-.56-.84-1.06-.9-.54-.05-1.09,.12-1.5,.47-.48,.43-.88,.95-1.18,1.53-.39,.7-.7,1.45-.92,2.23-.25,.84-.41,1.71-.49,2.58-.09,.73-.03,1.46,.19,2.16,.14,.51,.59,.88,1.12,.92v-.02Z"/><path class="b" d="M279.3,136.83c.55-2.28,1.31-4.52,2.25-6.67,2.53,.41,5.06,.84,7.58,1.29,.13,.34,.22,.7,.27,1.06,.06,.41,.1,.83,.13,1.28,.03,.44,.03,.88,0,1.32,0,.43-.04,.82-.12,1.17-.28,1.56-.8,3.07-1.56,4.46-.86,1.63-1.83,3.2-2.92,4.69-1.15,1.58-2.38,3.1-3.68,4.56-1.33,1.47-2.61,2.81-3.84,4-.79,.76-1.62,1.48-2.48,2.16-.77,.6-1.61,1.12-2.49,1.54-.86,.4-1.77,.69-2.7,.85-1.04,.17-2.09,.2-3.14,.09-1.72-.19-3.39-.72-4.9-1.57,.75-2.19,1.51-4.36,2.27-6.53l.51,.33c.28,.17,.57,.33,.87,.47,.35,.16,.7,.3,1.07,.42,.35,.12,.71,.2,1.07,.24,.53,.07,1.07,.04,1.6-.07,.45-.11,.88-.3,1.27-.56,.3-.18,.58-.38,.85-.6,.17-.13,.32-.28,.47-.43-.35-2.62-.82-5.23-1.43-7.82s-1.24-5-1.89-7.22l-1.81-.22c.27-1.16,.6-2.31,1-3.46,.4-1.15,.81-2.28,1.24-3.41,2.58,.37,5.16,.75,7.73,1.14,.17,.59,.36,1.4,.57,2.45,.21,1.05,.42,2.18,.62,3.41,.2,1.23,.39,2.47,.56,3.71,.17,1.24,.33,2.34,.46,3.31,.27-.38,.53-.79,.8-1.24,.26-.45,.5-.91,.72-1.38,.21-.47,.4-.92,.56-1.36,.14-.37,.26-.75,.35-1.14l-1.86-.27Z"/><path class="c" d="M43.49,200.8l-3.59-20.38-3.24,.5c-.25-.81-.47-1.61-.66-2.4s-.37-1.59-.52-2.42c-.15-.83-.28-1.64-.38-2.45-.1-.81-.18-1.63-.23-2.48,9.12-1.91,18.27-3.66,27.46-5.25,2.57-.5,5.21-.58,7.81-.23,2.04,.27,4,.95,5.77,2,1.5,.93,2.75,2.2,3.64,3.72,.86,1.44,1.39,3.05,1.56,4.71,.23,1.81,.03,3.64-.56,5.36-.56,1.55-1.51,2.93-2.77,4,.97,.43,1.89,.94,2.77,1.53,.89,.59,1.69,1.31,2.37,2.13,.73,.9,1.32,1.92,1.74,3,.5,1.32,.81,2.71,.93,4.12,.22,2.03,.06,4.09-.47,6.06-.5,1.84-1.46,3.52-2.79,4.89-1.5,1.47-3.33,2.55-5.34,3.15-2.65,.77-5.41,1.09-8.17,.94-8.89-.23-17.78-.45-26.67-.65-.24-.83-.46-1.65-.65-2.44-.19-.79-.37-1.6-.52-2.43-.15-.83-.28-1.64-.38-2.44-.1-.8-.18-1.61-.24-2.44l3.13-.1Zm18.77-17.9c.92-.02,1.8-.42,2.42-1.1,.48-.59,.69-1.36,.58-2.12-.11-.71-.46-1.36-1-1.84-.78-.6-1.78-.82-2.74-.6l-5.73,.76,.76,5.48,5.71-.58Zm3.41,17.23c1.11,.08,2.2-.31,3-1.08,.61-.68,.88-1.59,.73-2.49-.11-.93-.6-1.78-1.34-2.35-.94-.68-2.1-.97-3.25-.83l-6.74,.39,.94,6.54,6.66-.18Z"/><path class="c" d="M91.26,199.62l-2.29-25.32-3.27,.33c-.19-1.03-.36-2.03-.5-3-.14-.97-.26-1.97-.36-3-.1-1.04-.17-2.06-.22-3.06-.05-1-.07-2.05-.07-3.15,8.04-1.15,16.1-2.17,24.17-3.06,.17,1.11,.31,2.19,.42,3.26s.21,2.16,.28,3.28c.07,1.12,.11,2.22,.13,3.29,.02,1.07,.02,2.17,0,3.29l-3.28,.26,1.77,26.74h3.18c.16,1.12,.3,2.21,.41,3.28s.2,2.16,.27,3.29c.07,1.12,.11,2.21,.14,3.28,.03,1.07,.03,2.16,0,3.28l-22.8-.68c-.19-1.04-.36-2.06-.5-3.06-.14-1-.26-2.02-.36-3.05-.1-1.04-.17-2.06-.22-3.05-.05-.99-.07-2.01-.08-3.05l3.18-.1Z"/><path class="c" d="M118.31,199.39l-1.47-27.43-3.29,.23c-.16-1.13-.3-2.23-.41-3.3s-.2-2.18-.26-3.31c-.07-1.13-.11-2.23-.12-3.32s-.01-2.2,0-3.34c6.39-.67,12.78-1.25,19.18-1.76,4.51,8.47,8.9,17.17,13.17,26.11l-.24-12.79-2.21,.09c-.13-1.2-.23-2.37-.3-3.52-.07-1.15-.12-2.34-.15-3.57v-3.53c0-1.15,.05-2.33,.14-3.54,7.29-.47,14.59-.84,21.89-1.1,.1,1.24,.17,2.45,.22,3.63,.05,1.18,.08,2.39,.09,3.64,0,1.24-.02,2.45-.07,3.64-.05,1.19-.12,2.4-.21,3.64l-3.28,.07,.15,44.22-14.5-.49c-4.27-9.23-8.66-18.24-13.17-27.05l.44,12.78h2.21c.13,1.19,.23,2.35,.32,3.48,.09,1.13,.15,2.29,.18,3.48,.04,1.19,.04,2.35,0,3.48-.04,1.13-.07,2.29-.09,3.48l-20.62-.66c-.15-1.13-.29-2.24-.4-3.32-.11-1.08-.2-2.19-.26-3.32-.07-1.13-.11-2.23-.12-3.32-.01-1.09-.01-2.19,0-3.32l3.18,.02Z"/><path class="c" d="M196.66,195.71l-2.85-.08c-.05-1.27-.09-2.49-.1-3.65s-.01-2.35,0-3.56c.04-1.21,.1-2.41,.18-3.6,.08-1.19,.19-2.41,.32-3.68,7.48,.14,14.95,.35,22.42,.64v3.71c0,1.19-.04,2.4-.12,3.62-.07,1.22-.15,2.41-.26,3.57-.11,1.16-.24,2.38-.4,3.65l-2.36-.09-.8,15.63c-.37,.21-1.16,.6-2.35,1.17-1.48,.68-3,1.25-4.56,1.71-2.1,.63-4.24,1.13-6.4,1.48-2.61,.43-5.26,.58-7.91,.47-4.04-.04-8.01-1-11.62-2.8-3.15-1.63-5.88-3.96-8-6.8-2.18-2.98-3.77-6.36-4.67-9.94-1.04-4.03-1.55-8.18-1.51-12.34-.04-4.28,.54-8.55,1.73-12.66,1.03-3.59,2.72-6.96,5-9.92,2.1-2.71,4.76-4.93,7.8-6.5,3.17-1.6,6.68-2.42,10.23-2.37,2.1,.01,4.2,.33,6.21,.94,1.85,.5,3.59,1.34,5.13,2.48l.07-1.83c2.23-.13,4.47-.16,6.74-.1,2,.05,4.02,.2,6.06,.44l-1.08,23.18c-1.33,.07-2.65,.11-3.94,.12s-2.58,.01-3.86,0c-1.33-.04-2.63-.1-3.89-.19s-2.53-.2-3.81-.34l.11-3.15c.1-1.49-.39-2.95-1.35-4.09-1.06-1.17-2.59-1.8-4.16-1.72-1.34-.03-2.65,.38-3.74,1.16-1.18,.86-2.14,1.99-2.82,3.28-.83,1.57-1.42,3.26-1.77,5-.43,2.09-.67,4.21-.69,6.34-.1,2.51,.12,5.02,.65,7.47,.36,1.74,1.04,3.41,2,4.91,.75,1.15,1.78,2.09,3,2.72,1.08,.54,2.26,.84,3.47,.88,.82,.03,1.64,0,2.46-.1,.44-.03,.87-.1,1.29-.21l.15-4.85Z"/><path class="b" d="M242.32,218.48c-4.21,.01-8.35-1.09-12-3.18-3.07-1.87-5.65-4.46-7.5-7.54-1.88-3.19-3.16-6.69-3.78-10.34-.69-3.81-.93-7.69-.72-11.56,.21-3.9,.88-7.75,2-11.49,1.06-3.63,2.8-7.02,5.13-10,2.35-2.94,5.39-5.27,8.84-6.78,4.15-1.71,8.68-2.34,13.14-1.81,4.43,.24,8.74,1.59,12.52,3.91,3.12,1.99,5.72,4.68,7.6,7.86,1.81,3.16,2.99,6.65,3.47,10.26,.52,3.7,.58,7.45,.18,11.16-.41,3.72-1.26,7.39-2.54,10.91-1.23,3.47-3.06,6.7-5.4,9.54-5.14,6.21-12.96,9.56-21,9l.06,.06Zm1.29-15.82c2.62,.12,4.8-1.09,6.55-3.62s2.85-6.31,3.32-11.34c.46-5.09,.03-9-1.29-11.72-.99-2.49-3.32-4.2-6-4.39-2.76-.22-5.41,1.14-6.84,3.51-1.76,2.54-2.82,6.4-3.19,11.58-.37,5.18,.1,9.09,1.39,11.72,1.01,2.49,3.38,4.15,6.06,4.24v.02Z"/><path class="c" d="M276.7,160.29c6.15,.78,12.29,1.65,18.41,2.6-2.12,11.45-4.22,22.94-6.31,34.48-4.73-.37-9.47-.73-14.21-1.06,.72-11.97,1.42-23.97,2.11-36.02Zm13,41.16c-.1,1.48-.22,2.92-.35,4.33-.13,1.41-.29,2.82-.48,4.24-.19,1.43-.39,2.84-.62,4.23-.23,1.39-.48,2.8-.75,4.23l-16.68-.54c.07-1.48,.16-2.94,.25-4.39s.22-2.91,.38-4.39c.17-1.47,.36-2.93,.59-4.38,.23-1.45,.47-2.93,.74-4.45,5.62,.35,11.25,.73,16.89,1.15l.03-.03Z"/></svg>