<?xml version="1.0" encoding="UTF-8"?><svg id="a" xmlns="http://www.w3.org/2000/svg" viewBox="0 0 541.52 541.52"><defs><style>.b{fill:#fff;}.c{fill:#1496d3;}.d{fill:#2d2d2d;stroke:#000;stroke-miterlimit:10;}</style></defs><rect class="d" x=".5" y=".5" width="540.52" height="540.52"/><path class="c" d="M157.34,231.59c-.11-12.26-.15-24.47-.13-36.63l-3.35,.43c-.31-5.93-.31-11.88,0-17.81,8.06-.92,16.11-1.77,24.14-2.54,.19,5.82,.06,11.65-.4,17.45l-4.08,.45c-.25,11.95-.38,23.92-.38,35.93l8.46-1.21c0-3.78,.05-7.55,.16-11.32,1.2-.28,2.36-.52,3.49-.74,1.13-.22,2.33-.39,3.6-.52,1.2-.14,2.4-.25,3.6-.32,1.2-.07,2.4-.11,3.6-.13-.29,9.59-.53,19.23-.74,28.91-13.72,1.94-27.35,4.11-40.89,6.51-.24-2.97-.38-5.97-.41-9-.04-3.02,0-6.02,.09-9l3.24-.49Z"/><path class="c" d="M232.52,235.93c-1.53,1.27-3.18,2.39-4.93,3.35-2.87,1.46-6,2.35-9.21,2.63-2.57,.37-5.18,.14-7.65-.67-2.26-.78-4.29-2.1-5.94-3.83-1.77-1.88-3.16-4.08-4.12-6.48-1.1-2.74-1.82-5.62-2.14-8.56-.47-3.84-.47-7.73,0-11.57,.44-3.75,1.5-7.4,3.15-10.79,1.55-3.2,3.82-6.01,6.62-8.2,3-2.26,6.61-3.56,10.36-3.72,2.26-.2,4.53,.03,6.69,.7,1.87,.59,3.6,1.55,5.09,2.82,1.42,1.22,2.56,2.73,3.35,4.43,.8,1.7,1.29,3.53,1.44,5.4,.18,2.22,.09,4.46-.27,6.66-.38,2.34-1.3,4.56-2.68,6.49-1.68,2.27-3.86,4.11-6.37,5.4-3.58,1.75-7.43,2.86-11.39,3.29,.31,1.11,.94,2.11,1.8,2.88,1.26,.84,2.8,1.13,4.28,.81,2.39-.24,4.7-.94,6.82-2.07,2.08-1.09,4.02-2.43,5.77-3.99-.2,5.06-.43,10.07-.68,15.04Zm-10.99-32.38c-.06-.81-.36-1.59-.86-2.23-.54-.64-1.37-.94-2.19-.81-1.82,.25-3.32,1.53-3.85,3.29-.98,2.59-1.45,5.35-1.39,8.11,2.42-.36,4.68-1.44,6.48-3.11,1.39-1.37,2.09-3.29,1.89-5.24l-.07-.02Z"/><path class="c" d="M242.99,187.82c.12-1.6,.26-3.29,.43-5.07,.17-1.79,.31-3.51,.43-5.16,5.64-2.31,11.36-4.54,17.18-6.67-.56,5.4-1.12,10.79-1.66,16.19l7.38-.25c-.11,2.52-.29,5.05-.56,7.59s-.61,5.09-1.04,7.63l-7.2,.34c-.42,4.44-.83,8.89-1.22,13.35-.08,.85-.13,1.54-.14,2.05-.01,.52-.01,.92,0,1.22,.04,.56,.26,1.09,.63,1.51,.53,.51,1.27,.73,2,.59,.93-.07,1.84-.29,2.7-.63,.78-.28,1.53-.63,2.25-1.04-.49,4.92-.97,9.85-1.44,14.79-1.49,.77-3.04,1.44-4.62,2-1.86,.69-3.8,1.14-5.77,1.31-3.81,.34-6.69-.4-8.64-2.21-2.13-2.22-3.34-5.16-3.38-8.24-.07-.85-.1-1.68-.09-2.48,.01-.8,.05-1.7,.11-2.7,.47-6.2,.96-12.39,1.48-18.57l-3.81,.25c.01-5.21,.4-10.42,1.15-15.58l3.85-.22Z"/><path class="c" d="M269.69,197.9c2.01-3.85,4.05-7.68,6.12-11.48l-4.61,.11c.27-6.38,.98-12.74,2.14-19.02h17.04c-.45,6.28-1.26,12.54-2.43,18.73-.45,.57-.85,1.17-1.21,1.8-.76,1.2-1.6,2.48-2.52,3.85l-3.6,5.68c-3.62,.02-7.27,.13-10.94,.32Z"/><path class="c" d="M286.82,218.33c3.57-.55,7.19-.68,10.79-.38v2.28c.11,.81,.52,1.55,1.15,2.07,1.11,.84,2.51,1.2,3.89,1.01,2.5,0,3.72-1.06,3.6-2.99,0-.53-.15-1.06-.43-1.51-.47-.57-1.09-1-1.8-1.22l-5.4-1.96c-1.26-.47-2.47-1.07-3.6-1.8-1.14-.75-2.16-1.68-3.02-2.73-.89-1.08-1.6-2.29-2.1-3.6-.56-1.51-.86-3.1-.9-4.71-.19-2.76,.22-5.52,1.19-8.11,.77-2.05,2-3.9,3.6-5.4,1.52-1.4,3.33-2.44,5.31-3.04,1.86-.57,3.81-.87,5.76-.86,1.83-.02,3.65,.24,5.4,.77,1.29,.39,2.51,1,3.6,1.8l.27-1.48c3.62-.36,7.28-.3,10.88,.18-.83,4.87-1.64,9.75-2.45,14.64-3.79,.38-7.6,.38-11.39,0l.13-.77c.08-.37,.12-.75,.13-1.13-.03-.71-.37-1.37-.94-1.8-.74-.56-1.66-.84-2.59-.77-.92-.06-1.82,.24-2.52,.85-.57,.56-.87,1.34-.83,2.14,.03,.44,.16,.87,.36,1.26,.35,.59,.92,1.01,1.58,1.17l5.65,2.05c1.24,.52,2.44,1.12,3.6,1.8,1.16,.68,2.23,1.52,3.15,2.5,.96,1.05,1.71,2.27,2.21,3.6,.59,1.51,.88,3.11,.86,4.73,.09,2.76-.39,5.5-1.42,8.06-.87,2-2.13,3.81-3.71,5.31-1.56,1.44-3.39,2.53-5.4,3.22-1.95,.69-3.99,1.09-6.06,1.17-1.76,.06-3.52-.1-5.24-.49-1.46-.27-2.85-.84-4.08-1.67l-.23,1.6c-3.6,.64-7.26,.82-10.9,.56,.64-5.46,1.27-10.9,1.91-16.34Z"/><path class="c" d="M340.75,217.68c1.85-10.39,3.75-20.72,5.7-31l-3.36-.13c.62-5.05,1.55-10.06,2.77-15,8.56,.46,17.12,1.01,25.67,1.66,2.83,.14,5.6,.8,8.19,1.96,1.97,.91,3.71,2.26,5.07,3.94,1.23,1.58,2.09,3.43,2.5,5.4,.44,2.04,.6,4.14,.49,6.22-.14,2.79-.74,5.54-1.8,8.13-1.04,2.53-2.57,4.83-4.5,6.76-2.02,2.01-4.44,3.57-7.11,4.59-3.09,1.14-6.39,1.63-9.68,1.44l-7.07-.23-1.3,6.64,6.53,.18c-.31,2.48-.71,4.96-1.21,7.43s-1.06,4.95-1.69,7.45c-8.4-.11-16.76-.11-25.08,0,.24-2.55,.58-5.1,1.03-7.65s.95-5.09,1.53-7.63l3.31-.16Zm25.19-20.67c1.26,.06,2.5-.39,3.42-1.26,1.11-1.13,1.71-2.66,1.64-4.25,.16-1.09-.18-2.2-.92-3.02-.75-.62-1.69-.97-2.66-.99l-4.75-.27c-.65,3.18-1.3,6.36-1.94,9.55l5.22,.23Z"/><path class="c" d="M390.01,186.08c.36-2.24,.79-4.48,1.28-6.71s1.09-4.45,1.8-6.66c6.68,.65,13.35,1.36,20.02,2.12-4.04,15.23-7.97,30.61-11.78,46.13l3.26,.22c-.4,2.21-.85,4.41-1.35,6.62-.5,2.21-1.1,4.41-1.8,6.62-6.34-.34-12.7-.61-19.05-.83,3.6-15.89,7.26-31.64,10.99-47.24l-3.36-.27Z"/><path class="c" d="M428.22,236.16l.59-3.31c-1.35,1.26-2.94,2.24-4.68,2.88-1.73,.63-3.57,.88-5.4,.76-2.16-.04-4.25-.75-5.99-2.01-1.46-1.15-2.61-2.64-3.36-4.34-.78-1.77-1.24-3.65-1.39-5.58-.15-1.92-.15-3.85,0-5.77,.24-3.77,1.04-7.48,2.39-11.01,1.18-3.11,2.92-5.97,5.15-8.44,2.03-2.24,4.53-4,7.32-5.15,2.81-1.13,5.87-1.51,8.87-1.12,2.19,.14,4.31,.86,6.12,2.1,1.12,.83,2.11,1.83,2.93,2.97l2.05-2.77c3.83,.49,7.65,1,11.46,1.53-2.9,9.21-5.76,18.49-8.58,27.83l3.26,.34c-.48,2.1-1.01,4.19-1.6,6.28-.59,2.09-1.28,4.17-2.09,6.26-5.72-.53-11.41-1.01-17.05-1.46Zm-1.6-12.59c.74,.01,1.46-.21,2.05-.65,.88-.61,1.62-1.39,2.18-2.3,.8-1.27,1.43-2.64,1.89-4.07,.62-1.91,1.02-3.88,1.19-5.88,.12-1.09,0-2.2-.38-3.24-.24-.88-1-1.52-1.91-1.62-.98-.1-1.95,.21-2.7,.85-.87,.78-1.59,1.71-2.12,2.75-.71,1.27-1.26,2.61-1.66,4.01-.45,1.51-.74,3.07-.88,4.64-.16,1.3-.05,2.63,.34,3.89,.26,.92,1.06,1.58,2.01,1.66l-.02-.04Z"/><path class="c" d="M476.74,212.92c1-4.11,2.35-8.13,4.05-12,4.56,.74,9.1,1.52,13.64,2.32,.24,.61,.4,1.25,.49,1.91,.11,.73,.19,1.5,.23,2.3,.05,.79,.05,1.58,0,2.37,0,.78-.07,1.48-.22,2.1-.5,2.81-1.45,5.52-2.81,8.02-1.54,2.94-3.3,5.76-5.25,8.44-2.06,2.85-4.27,5.58-6.62,8.2-2.4,2.65-4.7,5.05-6.91,7.2-1.42,1.37-2.91,2.67-4.46,3.89-1.39,1.09-2.89,2.02-4.48,2.77-1.54,.72-3.18,1.24-4.86,1.53-1.87,.3-3.77,.35-5.65,.16-3.1-.33-6.1-1.29-8.82-2.82,1.36-3.93,2.72-7.85,4.08-11.75l.92,.59c.51,.31,1.03,.59,1.57,.85,.62,.29,1.27,.55,1.92,.76,.62,.21,1.27,.36,1.92,.43,.96,.12,1.93,.08,2.88-.13,.81-.2,1.59-.54,2.28-1.01,.54-.32,1.05-.68,1.53-1.08,.3-.24,.58-.5,.85-.77-.62-4.71-1.48-9.4-2.57-14.07s-2.22-9-3.4-12.99l-3.26-.4c.48-2.09,1.08-4.16,1.8-6.22,.72-2.06,1.46-4.11,2.23-6.13,4.64,.66,9.28,1.34,13.91,2.05,.3,1.06,.64,2.52,1.03,4.41,.38,1.88,.76,3.93,1.12,6.13,.36,2.22,.7,4.44,1.01,6.67,.31,2.23,.59,4.22,.83,5.95,.48-.68,.96-1.43,1.44-2.23,.47-.8,.91-1.63,1.3-2.48,.38-.84,.72-1.66,1.01-2.45,.25-.67,.46-1.36,.63-2.05l-3.35-.49Z"/><path class="b" d="M52.51,328l-6.46-36.66-5.83,.9c-.44-1.46-.84-2.9-1.19-4.32s-.66-2.87-.94-4.35c-.28-1.49-.5-2.96-.68-4.41-.18-1.45-.32-2.94-.41-4.46,16.41-3.44,32.87-6.59,49.4-9.44,4.63-.9,9.38-1.04,14.05-.41,3.67,.48,7.2,1.71,10.38,3.6,2.69,1.67,4.94,3.96,6.55,6.69,1.54,2.59,2.5,5.48,2.81,8.47,.41,3.25,.06,6.55-1.01,9.64-1.01,2.79-2.72,5.27-4.98,7.2,1.74,.77,3.4,1.69,4.98,2.75,1.6,1.06,3.04,2.35,4.26,3.83,1.32,1.62,2.38,3.45,3.13,5.4,.9,2.38,1.46,4.88,1.67,7.41,.4,3.66,.11,7.35-.85,10.9-.9,3.31-2.63,6.34-5.02,8.8-2.69,2.65-5.99,4.59-9.61,5.67-4.77,1.39-9.74,1.96-14.7,1.69-16-.42-31.99-.81-47.98-1.17-.43-1.5-.82-2.96-1.17-4.39-.35-1.43-.66-2.88-.94-4.37-.28-1.49-.5-2.95-.68-4.39-.18-1.44-.32-2.9-.43-4.39l5.63-.18Zm33.77-32.2c1.66-.04,3.23-.75,4.35-1.98,.87-1.07,1.25-2.45,1.04-3.81-.19-1.28-.83-2.45-1.8-3.31-1.4-1.09-3.21-1.48-4.93-1.08l-10.31,1.37,1.37,9.86,10.27-1.04Zm6.13,31c1.99,.15,3.96-.56,5.4-1.94,1.09-1.22,1.58-2.86,1.31-4.48-.21-1.67-1.07-3.2-2.41-4.23-1.69-1.22-3.78-1.75-5.85-1.49l-12.13,.7,1.69,11.77,11.98-.32Z"/><path class="b" d="M138.45,325.88l-4.12-45.55-5.88,.59c-.35-1.86-.65-3.66-.9-5.4-.25-1.74-.47-3.54-.65-5.4-.18-1.87-.31-3.71-.4-5.51-.08-1.8-.13-3.69-.13-5.67,14.46-2.06,28.96-3.9,43.48-5.51,.3,1.99,.55,3.95,.76,5.86s.37,3.89,.5,5.9c.12,2.01,.2,3.99,.23,5.92,.04,1.93,.04,3.9,0,5.92l-5.9,.47,3.18,48.11h5.72c.29,2.01,.53,3.98,.74,5.9s.37,3.89,.49,5.92c.12,2.01,.2,3.98,.25,5.9,.05,1.92,.05,3.89,0,5.9l-41.02-1.22c-.35-1.87-.65-3.71-.9-5.51-.25-1.8-.47-3.63-.65-5.49-.18-1.87-.31-3.7-.4-5.49-.08-1.79-.13-3.62-.14-5.49l5.72-.18Z"/><path class="b" d="M187.12,325.47l-2.64-49.35-5.92,.41c-.29-2.03-.53-4.01-.74-5.94s-.36-3.92-.47-5.95c-.12-2.03-.19-4.02-.22-5.97s-.02-3.96,0-6.01c11.49-1.2,22.99-2.25,34.51-3.17,8.11,15.23,16.01,30.89,23.69,46.97l-.43-23.01-3.98,.16c-.23-2.16-.41-4.27-.54-6.33-.13-2.06-.22-4.2-.27-6.42v-6.35c0-2.07,.08-4.2,.25-6.37,13.12-.85,26.25-1.51,39.38-1.98,.18,2.23,.31,4.41,.4,6.53,.08,2.12,.14,4.31,.16,6.55,0,2.23-.04,4.41-.13,6.55-.08,2.13-.21,4.32-.38,6.55l-5.9,.13,.27,79.55-26.09-.88c-7.68-16.6-15.57-32.82-23.69-48.66l.79,22.99h3.98c.23,2.13,.42,4.22,.58,6.26,.16,2.04,.26,4.13,.32,6.26,.07,2.13,.07,4.22,0,6.26-.07,2.04-.13,4.13-.16,6.26l-37.1-1.19c-.28-2.04-.52-4.03-.72-5.97-.2-1.94-.36-3.93-.47-5.97-.12-2.03-.19-4.02-.22-5.97-.02-1.95-.02-3.95,0-5.97l5.72,.04Z"/><path class="b" d="M328.05,318.84l-5.13-.14c-.1-2.29-.16-4.48-.18-6.57s-.02-4.22,0-6.4c.07-2.18,.18-4.34,.32-6.48,.14-2.13,.34-4.34,.58-6.62,13.46,.25,26.9,.64,40.33,1.15v6.67c0,2.15-.07,4.32-.22,6.51-.12,2.19-.28,4.34-.47,6.42-.19,2.09-.43,4.28-.72,6.57l-4.25-.16-1.44,28.12c-.67,.37-2.08,1.07-4.23,2.1-2.66,1.22-5.4,2.25-8.2,3.08-3.78,1.14-7.62,2.03-11.51,2.66-4.7,.77-9.47,1.05-14.23,.85-7.26-.08-14.41-1.8-20.9-5.04-5.66-2.94-10.58-7.12-14.39-12.23-3.92-5.37-6.77-11.44-8.4-17.88-1.87-7.25-2.78-14.71-2.72-22.2-.07-7.7,.98-15.37,3.11-22.78,1.85-6.46,4.9-12.52,9-17.85,3.77-4.87,8.56-8.86,14.03-11.69,5.7-2.89,12.02-4.35,18.4-4.26,3.79,.02,7.55,.59,11.17,1.69,3.32,.91,6.45,2.42,9.23,4.46l.13-3.29c4.01-.23,8.05-.29,12.13-.18,3.6,.1,7.23,.36,10.9,.79l-1.94,41.7c-2.4,.12-4.76,.19-7.09,.22s-4.64,.02-6.94,0c-2.4-.07-4.73-.19-7-.34s-4.55-.36-6.85-.61l.2-5.67c.17-2.67-.7-5.31-2.43-7.36-1.9-2.1-4.65-3.24-7.48-3.09-2.41-.05-4.77,.68-6.73,2.09-2.12,1.55-3.85,3.57-5.07,5.9-1.49,2.83-2.56,5.86-3.18,9-.78,3.75-1.2,7.57-1.24,11.41-.18,4.51,.21,9.03,1.17,13.44,.65,3.14,1.87,6.13,3.6,8.83,1.35,2.07,3.21,3.75,5.4,4.89,1.94,.98,4.07,1.52,6.24,1.58,1.48,.05,2.96-.01,4.43-.18,.78-.05,1.56-.17,2.32-.38l.27-8.73Z"/><path class="c" d="M410.21,359.81c-7.57,.02-15.02-1.95-21.59-5.72-5.53-3.36-10.16-8.02-13.49-13.56-3.38-5.73-5.69-12.04-6.8-18.6-1.24-6.86-1.68-13.84-1.3-20.8,.37-7.01,1.58-13.95,3.6-20.67,1.9-6.53,5.04-12.64,9.23-17.99,4.23-5.29,9.69-9.48,15.9-12.2,7.47-3.08,15.61-4.2,23.64-3.26,7.98,.43,15.72,2.85,22.52,7.03,5.61,3.57,10.29,8.42,13.67,14.14,3.26,5.69,5.38,11.96,6.24,18.46,.94,6.65,1.05,13.4,.32,20.08-.74,6.7-2.27,13.29-4.57,19.63-2.22,6.24-5.5,12.05-9.71,17.16-9.25,11.17-23.31,17.2-37.78,16.19l.11,.11Zm2.32-28.46c4.71,.22,8.64-1.95,11.78-6.51s5.13-11.36,5.97-20.4c.83-9.16,.05-16.19-2.32-21.08-1.79-4.48-5.98-7.55-10.79-7.9-4.97-.4-9.73,2.05-12.31,6.31-3.17,4.57-5.08,11.51-5.74,20.83-.66,9.32,.17,16.35,2.5,21.08,1.81,4.47,6.08,7.46,10.9,7.63v.04Z"/><path class="b" d="M472.07,255.12c11.07,1.4,22.11,2.96,33.12,4.68-3.81,20.59-7.6,41.27-11.35,62.03-8.52-.67-17.04-1.31-25.56-1.91,1.3-21.53,2.56-43.13,3.8-64.8Zm23.39,74.05c-.18,2.66-.39,5.26-.63,7.79-.24,2.53-.53,5.07-.86,7.63-.34,2.57-.71,5.1-1.12,7.61-.41,2.51-.86,5.04-1.35,7.61l-30.01-.97c.13-2.66,.28-5.3,.45-7.9s.4-5.24,.68-7.9c.3-2.65,.65-5.28,1.06-7.88,.41-2.6,.85-5.27,1.33-8.01,10.11,.62,20.24,1.31,30.39,2.07l.05-.05Z"/></svg>