<?xml version="1.0" encoding="utf-8"?>
<!-- Generator: Adobe Illustrator 26.3.1, SVG Export Plug-In . SVG Version: 6.00 Build 0)  -->
<svg version="1.1" id="Layer_1" xmlns="http://www.w3.org/2000/svg" xmlns:xlink="http://www.w3.org/1999/xlink" x="0px" y="0px"
	 viewBox="0 0 122.9 122.9" style="enable-background:new 0 0 122.9 122.9;" xml:space="preserve">
<style type="text/css">
	.st0{fill-rule:evenodd;clip-rule:evenodd;fill:#155E00;}
	.st1{fill:#333333;stroke:#333333;stroke-width:3;stroke-linecap:round;stroke-linejoin:round;stroke-miterlimit:10;}
</style>
<g>
	<path class="st0" d="M11.8,93.2C8.2,87.7,5.5,81.6,3.9,75l10.8,5.2l0.1,3.2c0,1.2-2,3.7-2.7,4.7L11.8,93.2L11.8,93.2L11.8,93.2z
		 M78.3,6.5c20.6,6.9,36.1,25,39.1,47.1l-1.9-0.2c-0.3,1.5-0.7,1.5-0.7,3.3c0,1.6,2,2.7,2,6c0,0.9-2.1,2.7-2.2,3l-3.1-3.7v4.7H111
		l-0.8-8.6l-1.8,0.5l-2.1-6.4l-6.8,7.2l-0.1,5.2l-2.2,1.5l-2.4-13.4l-1.4,1l-3.2-4.3l-4.8,0.1l-1.8-2.1l-1.9,0.5L78,43.7l-0.7,0.5
		l2.3,5.9h2.7v-1.3h1.3c1,2.7,2,1.1,2,2.7c0,5.5-6.8,9.6-11.3,10.7c0.2,1,0.2,2,1.3,2c2.5,0,1.3-0.4,4-0.7
		c-0.1,5.7-6.5,12.4-9.2,16.7l1.2,8.7c0.3,1.9-3.9,3.9-5.4,6l0.7,3.3L65,99c-0.3,3.4-3.7,7.2-7.4,7.2h-4c0-4.7-3.3-11.4-3.3-14.7
		c0-2.8,1.3-3.2,1.3-6.7c0-3.2-3.3-7.8-3.3-8.7v-5.3h-2.7c-0.4-1.5-0.2-2-2-2h-0.7c-2.9,0-2.4,1.3-5.3,1.3h-2.7
		c-2.4,0-6.7-7.7-6.7-8.7v-8c0-3.5,3.2-7.2,5.3-8.7v-3.3l3-3l1.7-0.3c3.6,0,3.2-2,5.3-2h6v4.7l6.6,2.8l0.6-2.8c3,0.7,3.8,2,7.4,2
		h1.3c2.5,0,2.7-3.4,2.7-6l-5.3,0.5l-2.3-5.1l-2.3,0.6c0.4,1.8,0.6,1.1,0.6,2.6c0,0.9-0.7,1-1.3,1.3l-2.3-5.9l-5-3.5L49.4,28
		l4.2,4.4c-0.6,1.6-0.6,6.2-3,3l2.2-1l-5.4-5.7L44.1,30L41,33c-0.3,2.5-1,3.7-3.6,3.7c-1.7,0-0.7-0.5-3.3-0.7v-6.7h6l-2-4.4
		l-0.7,0.4V24l9.8-4.5c-0.2-1.4-0.4-0.6-0.4-2.2c0-0.1,0.7-1.3,0.7-1.3l2.5,1.6l-0.6-2.9l-3.9,0.8L44.7,12c3.1-1.6,9.9-7.3,12-7.3h2
		c2.1,0,7.8,2.1,8.7,3.3L62,7.5l4,3.3l0.4-1.4l3-0.8V6.8h1.3v2L78.3,6.5L78.3,6.5L78.3,6.5z"/>
	<path class="st1" d="M61.4,2.5C28.9,2.5,2.5,28.9,2.5,61.4c0,32.5,26.4,58.9,58.9,58.9c32.5,0,58.9-26.4,58.9-58.9
		C120.3,28.9,93.9,2.5,61.4,2.5z M61.4,117.8C30.3,117.8,5,92.6,5,61.4S30.3,5,61.4,5c31.1,0,56.4,25.3,56.4,56.4
		S92.5,117.8,61.4,117.8z"/>
</g>
</svg>
