<?xml version="1.0" standalone="no"?>
<!DOCTYPE svg PUBLIC "-//W3C//DTD SVG 20010904//EN"
 "http://www.w3.org/TR/2001/REC-SVG-20010904/DTD/svg10.dtd">
<svg version="1.0" xmlns="http://www.w3.org/2000/svg"
 width="700.000000pt" height="700.000000pt" viewBox="0 0 700.000000 700.000000"
 preserveAspectRatio="xMidYMid meet">
<metadata>
Created by potrace 1.11, written by Peter Selinger 2001-2013
</metadata>
<g transform="translate(0.000000,700.000000) scale(0.100000,-0.100000)"
fill="#000000" stroke="none">
<path d="M3305 6710 c-788 -59 -1495 -380 -2045 -930 -503 -502 -818 -1139
-915 -1850 -22 -161 -30 -504 -16 -674 92 -1096 724 -2056 1692 -2571 950
-505 2103 -498 3041 21 776 428 1349 1167 1562 2013 72 284 97 497 97 801 0
636 -180 1237 -526 1755 -333 500 -748 863 -1280 1121 -429 208 -836 306
-1325 318 -96 2 -224 1 -285 -4z m525 -1255 c483 -80 897 -318 1215 -699 308
-369 476 -901 437 -1382 -39 -473 -223 -886 -547 -1223 -467 -487 -1151 -698
-1815 -560 -590 122 -1095 513 -1360 1054 -138 283 -200 551 -200 870 0 318
62 587 198 864 297 604 871 1008 1552 1091 105 12 406 4 520 -15z"/>
<path d="M3345 5389 c-650 -67 -1207 -447 -1502 -1025 -98 -192 -159 -390
-189 -619 -21 -158 -14 -414 15 -573 47 -250 172 -544 319 -752 79 -112 295
-334 402 -412 728 -538 1708 -496 2387 102 291 255 510 637 588 1025 100 492
2 1001 -272 1415 -85 127 -118 168 -236 289 -282 286 -641 471 -1046 535 -121
20 -351 27 -466 15z m428 -170 c481 -72 909 -343 1182 -749 290 -431 367 -989
205 -1492 -41 -126 -156 -354 -232 -460 -242 -335 -591 -576 -977 -673 -719
-182 -1464 108 -1874 730 -116 176 -204 396 -249 616 -19 96 -23 146 -23 319
0 126 5 232 13 275 74 397 234 699 514 971 276 267 627 431 1013 473 103 11
321 6 428 -10z"/>
<path d="M3140 3530 l0 -712 318 5 c253 3 329 8 377 21 136 38 227 106 273
206 35 75 43 212 16 296 -31 100 -114 186 -213 221 l-49 17 57 23 c69 27 123
85 147 155 24 74 16 216 -16 281 -42 83 -119 140 -237 174 -46 13 -120 17
-365 20 l-308 5 0 -712z m641 519 c69 -32 101 -79 107 -155 6 -78 -5 -120 -44
-164 -57 -63 -106 -74 -324 -75 l-185 0 -3 213 -2 214 197 -4 c189 -3 201 -4
254 -29z m-45 -560 c81 -14 146 -55 176 -111 19 -36 23 -58 23 -138 0 -113
-21 -164 -85 -206 -64 -42 -135 -54 -337 -54 l-183 0 0 260 0 260 172 0 c94 0
200 -5 234 -11z"/>
</g>
</svg>
