<svg xmlns="http://www.w3.org/2000/svg" xmlns:xlink="http://www.w3.org/1999/xlink" viewBox="0 0 572.98 226.13"><defs><style>.cls-1{fill:url(#New_Gradient_Swatch_2);}.cls-2{font-size:60px;font-family:RobotoCondensed-Bold, Roboto Condensed;font-weight:700;}.cls-3{fill:url(#New_Gradient_Swatch_4);}.cls-4{fill:url(#New_Gradient_Swatch_5);}.cls-5{fill:url(#New_Gradient_Swatch_1);}.cls-6{fill:url(#New_Gradient_Swatch_3);}.cls-7{fill:#2d2d2d;}.cls-8{fill:#fff;}</style><radialGradient id="New_Gradient_Swatch_2" cx="505.4" cy="120.96" r="66" gradientTransform="translate(12.63 -39.12) rotate(4.5)" gradientUnits="userSpaceOnUse"><stop offset="0.5" stop-color="#fff"/><stop offset="0.51" stop-color="#fcee21"/><stop offset="0.52" stop-color="#fff"/><stop offset="0.57" stop-color="#fff"/><stop offset="0.57" stop-color="#fffffd"/><stop offset="0.57" stop-color="#fefac3"/><stop offset="0.57" stop-color="#fef792"/><stop offset="0.57" stop-color="#fdf469"/><stop offset="0.57" stop-color="#fdf14a"/><stop offset="0.57" stop-color="#fcef33"/><stop offset="0.58" stop-color="#fcee26"/><stop offset="0.58" stop-color="#fcee21"/><stop offset="0.98" stop-color="#fcd421"/></radialGradient><radialGradient id="New_Gradient_Swatch_4" cx="397.74" cy="140.32" r="66" gradientTransform="translate(0.28 6.84)" gradientUnits="userSpaceOnUse"><stop offset="0.5" stop-color="#fff"/><stop offset="0.51" stop-color="green"/><stop offset="0.52" stop-color="#fff"/><stop offset="0.57" stop-color="#fff"/><stop offset="0.57" stop-color="#dceedc"/><stop offset="0.57" stop-color="#a2d1a2"/><stop offset="0.57" stop-color="#71b871"/><stop offset="0.57" stop-color="#48a448"/><stop offset="0.57" stop-color="#299429"/><stop offset="0.57" stop-color="#128912"/><stop offset="0.58" stop-color="#058205"/><stop offset="0.58" stop-color="green"/><stop offset="0.98" stop-color="#004a00"/></radialGradient><radialGradient id="New_Gradient_Swatch_5" cx="290.67" cy="160.11" r="66" gradientTransform="translate(-0.69 0.02)" gradientUnits="userSpaceOnUse"><stop offset="0.5" stop-color="#fff"/><stop offset="0.51" stop-color="#ff1d25"/><stop offset="0.52" stop-color="#fff"/><stop offset="0.57" stop-color="#fff"/><stop offset="0.58" stop-color="#fff"/><stop offset="0.98" stop-color="#ebebeb"/></radialGradient><radialGradient id="New_Gradient_Swatch_1" cx="172.77" cy="152.06" r="66" gradientTransform="translate(-13.61 19.78) rotate(-5.94)" gradientUnits="userSpaceOnUse"><stop offset="0.5" stop-color="#fff"/><stop offset="0.51" stop-color="#ff1d25"/><stop offset="0.52" stop-color="#fff"/><stop offset="0.57" stop-color="#fff"/><stop offset="0.57" stop-color="#fff9f9"/><stop offset="0.57" stop-color="#ffbfc2"/><stop offset="0.57" stop-color="#ff8e92"/><stop offset="0.57" stop-color="#ff656b"/><stop offset="0.57" stop-color="#ff464c"/><stop offset="0.57" stop-color="#ff2f37"/><stop offset="0.58" stop-color="#ff2229"/><stop offset="0.58" stop-color="#ff1d25"/><stop offset="0.98" stop-color="#d01d25"/></radialGradient><radialGradient id="New_Gradient_Swatch_3" cx="64.09" cy="134.48" r="66" gradientTransform="matrix(0.99, -0.15, 0.15, 0.99, -17.08, 1.57)" gradientUnits="userSpaceOnUse"><stop offset="0.5" stop-color="#fff"/><stop offset="0.51" stop-color="blue"/><stop offset="0.52" stop-color="#fff"/><stop offset="0.57" stop-color="#fff"/><stop offset="0.57" stop-color="#dcdcff"/><stop offset="0.57" stop-color="#a2a2ff"/><stop offset="0.57" stop-color="#7171ff"/><stop offset="0.57" stop-color="#4848ff"/><stop offset="0.57" stop-color="#2929ff"/><stop offset="0.57" stop-color="#1212ff"/><stop offset="0.58" stop-color="#0505ff"/><stop offset="0.58" stop-color="blue"/><stop offset="0.98" stop-color="#0000bc"/></radialGradient></defs><g id="Layer_2" data-name="Layer 2"><g id="yellow_ball" data-name="yellow ball"><circle class="cls-1" cx="506.98" cy="121.13" r="66"/><text class="cls-2" transform="matrix(1, 0.08, -0.08, 1, 487.94, 140.23)">O</text></g><g id="green_ball" data-name="green ball"><circle class="cls-3" cx="398.02" cy="147.15" r="66"/><text class="cls-2" transform="translate(380.54 167.69)">G</text></g><g id="white_ball" data-name="white ball"><circle class="cls-4" cx="289.98" cy="160.13" r="66"/><text class="cls-2" transform="translate(271.51 180.66)">N</text></g><g id="Layer_6" data-name="Layer 6"><g id="red_ball" data-name="red ball"><circle class="cls-5" cx="173.98" cy="153.13" r="66"/><text class="cls-2" transform="matrix(0.99, -0.1, 0.1, 0.99, 169.66, 174.22)">I</text></g></g><g id="blue_ball" data-name="blue ball"><circle class="cls-6" cx="66.01" cy="125.21" r="66"/><text class="cls-2" transform="translate(53.71 147.79) rotate(-8.42)">B</text></g><g id="Layer_7" data-name="Layer 7"><path class="cls-7" d="M119.08,114c-7.6,0-13.11-5.25-13.11-12.49,0-9.28,9.3-21.12,35.41-24.15A342.76,342.76,0,0,0,145.24,36c-2.56,2.61-3.77,4.81-3.77,6.84a6,6,0,0,0,1.34,3.63,2.91,2.91,0,0,1,.62,1.8,2.18,2.18,0,0,1-2.19,2.27,3.06,3.06,0,0,1-2.43-1.29,12.36,12.36,0,0,1-2.73-7.3c0-5.3,4.26-9.63,9-13.5v0c0-20,6.86-25.45,11-26.88A11,11,0,0,1,159.55,1c4.32,0,9.27,2.55,10,8a9.37,9.37,0,0,1,.08,1.48c0,5.92-4.64,10.66-9.51,14.68,1.42-.12,2.92-.19,4.45-.19,8.34,0,18,1.6,28.07,3.42.41-2.07.78-3.65,1.15-4.93,1.18-4.23,4.68-6.5,7.54-6.54,2.38,0,3.9,1.72,3.9,4.39a19.36,19.36,0,0,1-.81,4.39c-.32,1.27-.7,2.8-1.06,4.63,7.14,1.27,15.2,2.5,22,2.5,9.63,0,15-2.51,16.86-7.92A2.5,2.5,0,0,1,244.4,23c1.21,0,2.43,1.07,2.43,3.12a7.14,7.14,0,0,1-.44,2.3c-2.47,7-9.06,10.46-20.14,10.46-7.13,0-15.65-1.43-23.87-3a395.12,395.12,0,0,0-3.81,50.31c0,12.92,1.27,15.56,1.61,16,3.63-1.82,17.2-38,18.95-45.52a2.34,2.34,0,0,1,2.33-1.89h.12a2.37,2.37,0,0,1,2.3,2.42.57.57,0,0,1,0,.13l0,.31c-1.19,6.41-14.53,52.72-25.1,52.72a5.39,5.39,0,0,1-4-2.24c-1.7-2-3-6.33-3.84-13.3-9.43-7.53-25.16-13.14-37.93-13.54-3.41,13-17.55,31.7-32.9,32.59Zm21.38-32.06c-14.78,1.93-29.25,8.08-29.25,17.84,0,4.17,3.15,7.14,7.65,7.21h.1C130.49,107,138.05,92.13,140.46,81.91Zm13.68-5c11.79.57,26.15,5.38,36.15,12.06-.43-5.42-.65-11.79-.65-18.59q0-3.12.06-6.38c-5.22,6.2-12.89,11.82-19.13,11.82a10.14,10.14,0,0,1-5.72-1.75c-4.34-3-6.92-8.69-6.92-15.36,0-9.16,6.25-19.51,15.23-19.81a3.56,3.56,0,0,1,.61,0c5.55,0,8.86,2.72,8.86,7.17a12.67,12.67,0,0,1-.58,3.51c-1.65,5.35-8,12.5-13.29,15.16a11.86,11.86,0,0,0,.52,3.92A2.9,2.9,0,0,0,172,70.34c5,0,15.16-9.36,18-15.37.37-7.93,1-15.24,1.8-21.23-10.94-2.25-20.65-4.07-28.56-4.07a39.17,39.17,0,0,0-4.42.24C158.76,35.38,158.31,59.19,154.14,76.9Zm23.44-32.12c-1.77,0-6.54,4.94-8.29,14.14,3.19-2.54,6.76-7.09,8-10.36a9.48,9.48,0,0,0,.67-3C177.93,44.78,177.7,44.78,177.58,44.78ZM163,6.47a2.38,2.38,0,0,0-1.46,1.2c-.83,1.26-2.18,4.27-2.65,10.89,3.77-3.5,5.48-6.32,5.48-9C164.37,7.76,163.65,6.5,163,6.47Z"/><path class="cls-8" d="M159.55,2c4,0,8.36,2.31,9,7.09a8.73,8.73,0,0,1,.07,1.35c0,5.86-5,10.68-10.83,15.26v.7a46.59,46.59,0,0,1,6.76-.47c8.56,0,18.73,1.74,28.87,3.59.42-2.28.85-4.24,1.31-5.82,1-3.74,4.16-5.79,6.59-5.82,1.62,0,2.89,1,2.89,3.39,0,2-1.15,4.85-2,9.83,8.36,1.5,16.38,2.69,23.13,2.69,8.9,0,15.57-2.12,17.8-8.59A1.51,1.51,0,0,1,244.4,24c.74,0,1.43.73,1.43,2.12a6.08,6.08,0,0,1-.39,2c-2.58,7.36-9.75,9.79-19.19,9.79-7.25,0-15.84-1.47-24.71-3.2a393.58,393.58,0,0,0-4,51.49c0,10.41.85,17.08,2.51,17.08,4.12,0,18.56-40.05,20-46.34a1.36,1.36,0,0,1,1.35-1.11c.92.11,1.42.58,1.42,1.42l0,.31c-1.42,7.63-14.82,51.85-24.11,51.85a4.42,4.42,0,0,1-3.24-1.89c-1.68-1.94-2.87-6.75-3.66-13.18-10.09-8.22-26.79-13.84-39.64-14-3.09,13.22-17.47,31.76-32.19,32.61l-.92,0c-7.33,0-12.11-5.13-12.11-11.49,0-9,9.64-20.47,35.27-23.24a335.58,335.58,0,0,0,4-43.09l0-1.43c-3.35,3-5.74,6-5.74,9.14A7,7,0,0,0,142,47.1a1.86,1.86,0,0,1,.42,1.19,1.19,1.19,0,0,1-1.19,1.27,2.07,2.07,0,0,1-1.62-.88A11.29,11.29,0,0,1,137.08,42c0-4.82,4-9,9-13v-.5c0-19.46,6.43-24.59,10.29-25.94a10,10,0,0,1,3.2-.5m-1.78,18.89c4.28-3.63,7.6-7.37,7.6-11.34,0-2.27-1-4.08-2.39-4.08a3.12,3.12,0,0,0-2.28,1.66c-1.11,1.69-2.66,5.55-2.93,13.76M191.47,91c-.57-6.07-.83-13.22-.83-20.63,0-3.1,0-6.25.13-9.37-4.93,6.81-13.57,13.81-20.2,13.81a9.13,9.13,0,0,1-5.17-1.58c-4.7-3.2-6.47-9.29-6.47-14.53,0-8.1,5.51-18.58,14.33-18.81a2.37,2.37,0,0,1,.51,0c4.7,0,7.86,2.08,7.86,6.17a11.64,11.64,0,0,1-.54,3.23c-1.62,5.25-8.17,12.53-13.34,14.81a14.3,14.3,0,0,0,.62,5A3.91,3.91,0,0,0,172,71.34c5.6,0,16.18-9.94,18.95-16.13.38-8.2,1-16,1.93-22.26-10.68-2.2-21.2-4.28-29.68-4.28a38.52,38.52,0,0,0-5.42.36c0,9.91-.9,32.68-4.93,48.82,12.4.29,28.17,5.54,38.59,13.15M167.94,61.05c3.9-2.16,8.79-8.17,10.26-12.14a10.21,10.21,0,0,0,.73-3.32c0-1.27-.54-1.81-1.35-1.81-2.62,0-8.25,6.21-9.64,17.27M118.84,108H119c12.8,0,20.66-16.58,22.78-27.22-23.28,2.63-31.53,12-31.53,19,0,4.58,3.51,8.13,8.63,8.21M159.55,0a12.18,12.18,0,0,0-3.79.59l-.07,0c-10,3.49-11.58,18.45-11.63,27.39-4.56,3.79-9,8.39-9,14a13.29,13.29,0,0,0,2.93,7.9,4.06,4.06,0,0,0,3.23,1.69,3.11,3.11,0,0,0,2.21-.89c-.64,8.3-1.64,18-2.93,25.76-26.2,3.24-35.55,15.44-35.55,25,0,7.82,5.93,13.49,14.11,13.49h.08l.92,0c15.52-.9,29.79-19.32,33.63-32.56,12.28.59,27.13,5.91,36.24,13,.9,6.94,2.22,11.34,4,13.43a6.3,6.3,0,0,0,4.75,2.58c3.16,0,8.35-2.53,16.87-24.34,4.8-12.31,8.49-25.32,9.21-29.14,0,0,0-.08,0-.12l0-.31a2,2,0,0,0,0-.25,3.34,3.34,0,0,0-3.18-3.41h-.24a3.36,3.36,0,0,0-3.31,2.7c-.64,2.72-4.12,13-8.39,23.86-5.12,13-7.91,18-9.23,19.88-.42-1.79-1-5.71-1-14.07a397.19,397.19,0,0,1,3.64-49.13c8,1.52,16.12,2.84,23,2.84,11.56,0,18.45-3.64,21.08-11.13a8,8,0,0,0,.5-2.63c0-2.7-1.72-4.12-3.43-4.12a3.47,3.47,0,0,0-3.19,2.5c-1.71,4.95-6.77,7.25-15.92,7.25-6.37,0-13.93-1.11-20.78-2.31.3-1.37.6-2.56.85-3.57a20.39,20.39,0,0,0,.84-4.64c0-3.73-2.45-5.39-4.89-5.39-3.25,0-7.2,2.57-8.52,7.28-.31,1.08-.63,2.4-1,4-9.75-1.76-19.14-3.27-27.29-3.27L163,24c4.14-3.75,7.62-8.13,7.62-13.51a10.65,10.65,0,0,0-.09-1.64c-.8-6-6.23-8.75-10.94-8.8Zm.61,15.88c.6-4.71,1.68-6.85,2.21-7.65a2.94,2.94,0,0,1,.55-.65,3.81,3.81,0,0,1,.45,2c0,2.15-1.43,4.36-3.21,6.33Zm-.36,14.94c1.1-.1,2.25-.15,3.43-.15,7.6,0,16.93,1.71,27.45,3.86-.75,5.79-1.32,12.72-1.67,20.2-3,6.12-12.77,14.61-17,14.61a1.9,1.9,0,0,1-1.84-1.15,10.33,10.33,0,0,1-.42-2.91c5.39-3,11.58-10.08,13.23-15.44a13.53,13.53,0,0,0,.63-3.82c0-5-3.77-8.12-9.85-8.17h0a4.8,4.8,0,0,0-.7,0c-6.34.24-11.39,5.14-14.06,11.22.6-8.14.75-15,.8-18.29Zm-16.21,15a5,5,0,0,1-1.12-3,7,7,0,0,1,1.7-4.1c-.08,2.07-.21,4.58-.39,7.37l-.19-.26ZM171,56c1.66-5.6,4.38-8.88,5.86-9.87a10.71,10.71,0,0,1-.57,2.13A25.65,25.65,0,0,1,171,56ZM155.38,76c.85-3.82,1.54-7.89,2.1-12a17.34,17.34,0,0,0,6.8,10.89,11.15,11.15,0,0,0,6.29,1.93c4.42,0,8.92-2.57,11.91-4.73a45.28,45.28,0,0,0,6.18-5.44c0,1.26,0,2.51,0,3.73,0,6,.17,11.68.5,16.66A77.64,77.64,0,0,0,155.38,76Zm-36.52,30c-3.92-.07-6.65-2.62-6.65-6.21,0-4.87,5.76-13.61,26.92-16.66C136.47,92.9,129.4,106,119,106Z"/><path class="cls-7" d="M236.26,106.88c-5.21,0-8.71-4.06-8.71-10.1,0-4.71,2.14-14.62,16.2-29a12.12,12.12,0,0,0-4.88,2c-1.74,1-3.54,2-5.39,2A5.54,5.54,0,0,1,229,69.25c-2-2.61-3.21-7-3.21-12,0-8.89,4.45-22.12,16.72-22.12,5.05,0,8.71,3.84,8.71,9.13-.09,3.8-1.63,7.54-4.72,11.49a2.56,2.56,0,0,1-2,1,2.31,2.31,0,0,1-1.76-3.85c2.47-3.17,3.61-5.82,3.65-8.57,0-1.72-.53-3.07-1.2-3.07a3,3,0,0,0-1.77.94c-4.41,4-7.83,11.63-8.29,18.63l-.08,1.67c0,1.28.16,2.85.89,2.85s2.25-.81,3.66-1.59c2.24-1.25,5-2.8,7.83-2.8a6.84,6.84,0,0,1,3,.67c4.66-4,7.59-6.14,12.86-8.42a2.29,2.29,0,0,1,.9-.19,2.17,2.17,0,0,1,2.2,2.19,2.32,2.32,0,0,1-1.32,2.07c-4.64,2-7,3.72-11.15,7.22,1.48,2.27,2.29,5.86,2.29,10.29a44.94,44.94,0,0,1-1.38,10.69C251.09,100.24,242.8,106.88,236.26,106.88Zm11.12-36.42c-13.49,13.58-15,21.92-15,24.93s1.39,4.94,3.63,4.94c3.23,0,9.1-4.47,11.08-16.47a51.76,51.76,0,0,0,.71-8.36A22.93,22.93,0,0,0,247.38,70.46Z"/><path class="cls-8" d="M242.5,36.11c4.67,0,7.71,3.59,7.71,8.13-.07,3.28-1.31,6.79-4.51,10.87a1.54,1.54,0,0,1-1.19.58,1.31,1.31,0,0,1-1-2.2c2.89-3.7,3.85-6.55,3.89-9.21,0-2-.66-4.08-2.2-4.08a3.91,3.91,0,0,0-2.43,1.19c-4.85,4.36-8.17,12.34-8.63,19.31l-.08,1.7c0,2.93.73,3.89,1.89,3.89,2.47,0,7.05-4.39,11.49-4.39a5.75,5.75,0,0,1,3.16.88c5-4.24,7.78-6.39,13.14-8.71a1.33,1.33,0,0,1,.5-.11,1.18,1.18,0,0,1,1.2,1.19,1.34,1.34,0,0,1-.74,1.16c-5,2.16-7.47,4-12.1,8,1.78,2,2.66,5.93,2.66,10.44a43.77,43.77,0,0,1-1.35,10.45c-3.7,14.45-11.64,20.7-17.65,20.7-4.36,0-7.71-3.28-7.71-9.1,0-6.82,4.55-17.08,17.27-29.64a5.1,5.1,0,0,0-1.81-.35c-3.78,0-7.25,4-10.53,4a4.57,4.57,0,0,1-3.7-2.16c-1.92-2.46-3-6.74-3-11.41,0-9.21,4.62-21.12,15.72-21.12M236,101.33c4.2,0,10.1-5.36,12.06-17.31a53.1,53.1,0,0,0,.73-8.52c0-3.27-.38-5.82-1.07-6.82-12.22,12-16.35,21.2-16.35,26.71,0,3.86,2,5.94,4.63,5.94m6.47-67.22c-5.73,0-10.48,2.79-13.72,8.06a29.34,29.34,0,0,0-4,15.06c0,5.25,1.25,9.85,3.43,12.64a6.5,6.5,0,0,0,5.27,2.93c2.12,0,4-1.1,5.89-2.16l.74-.43c-8.78,9.76-13.56,19.06-13.56,26.57,0,6.64,3.9,11.1,9.71,11.1,3.79,0,7.74-2,11.14-5.56,3.75-3.94,6.67-9.7,8.45-16.65a46,46,0,0,0,1.41-10.94,21.89,21.89,0,0,0-2-10.07,36.66,36.66,0,0,1,10.24-6.52,3.33,3.33,0,0,0,1.94-3,3.16,3.16,0,0,0-3.2-3.19,3.22,3.22,0,0,0-1.33.29c-5.19,2.25-8.14,4.39-12.6,8.16a8,8,0,0,0-2.87-.51c-3.06,0-6,1.62-8.32,2.92a18.4,18.4,0,0,1-2.88,1.42,7.22,7.22,0,0,1-.18-1.8l.08-1.65c.44-6.72,3.72-14.1,8-17.91a3.78,3.78,0,0,1,.92-.63,4.64,4.64,0,0,1,.37,2c0,2.48-1.1,4.94-3.45,7.95a3.4,3.4,0,0,0-.79,2.15,3.29,3.29,0,0,0,3.35,3.31,3.55,3.55,0,0,0,2.75-1.33c3.24-4.13,4.86-8.08,5-12.07,0-5.92-4.08-10.18-9.71-10.18ZM236,99.33c-2.44,0-2.63-3-2.63-3.94,0-2.78,1.36-10.34,13.3-22.81.07.78.12,1.75.12,2.92a50.81,50.81,0,0,1-.7,8.19c-1.06,6.45-3.19,10.2-4.79,12.22s-3.68,3.42-5.3,3.42Z"/><path class="cls-7" d="M224.93,42.42a1.83,1.83,0,0,1-1.73-1.92.21.21,0,0,1,0-.11l.07-1.15c0-2.54-1-5.66-1.88-8.41-.23-.74-.46-1.44-.66-2.11a4.74,4.74,0,0,1-.16-1.17c0-1.95,1.61-3.2,4.09-3.2,2.76,0,5.62,1.67,5.62,4.47a.84.84,0,0,1-.05.31c0,.43,0,1-.07,1.54-.14,3.84-.35,9.66-3.95,11.42a1,1,0,0,1-.29.09A2.28,2.28,0,0,1,224.93,42.42Z"/><path class="cls-8" d="M224.66,25.35c2.15,0,4.62,1.27,4.62,3.47l0,.11c-.23,3,.16,10.49-3.47,12.26-.23,0-.42.23-.84.23-.7,0-.74-1-.74-1l.08-1.16c0-3.47-1.62-7.63-2.58-10.87a3.57,3.57,0,0,1-.12-.88c0-1.55,1.43-2.2,3.09-2.2m0-2c-3,0-5.09,1.69-5.09,4.2a5.55,5.55,0,0,0,.18,1.37s0,0,0,.08c.2.68.43,1.39.67,2.13.85,2.66,1.81,5.67,1.83,8.11l-.07,1.08a.81.81,0,0,0,0,.22,2.79,2.79,0,0,0,2.73,2.88,3.13,3.13,0,0,0,1.29-.28,2,2,0,0,0,.43-.15c4.14-2,4.36-8.2,4.51-12.29,0-.53,0-1,.06-1.4a2,2,0,0,0,.06-.48c0-3.43-3.37-5.47-6.62-5.47Z"/><path class="cls-7" d="M418.89,129c-9.51,0-16.41-6.66-16.41-15.84,0-13.27,13.73-27.92,37.71-40.26-.05-2.17-.13-4.42-.23-6.73-1.45,4.5-3.75,8.37-7.62,8.37-2,0-4.22-1.12-6.57-3.31a13.41,13.41,0,0,1-2.48-3.21c-3.47,13.31-7.68,20-12.52,20a5,5,0,0,1-1.44-.2c-7.26-1.91-9.25-17.69-9.8-26.42-1,3.25-2.77,6.59-6.07,6.95l-.4,0c-2.56,0-4.34-2-5.29-3.42-4.71,18.32-12.29,37-20.15,37-6.83,0-11.05-13.31-12.52-39.56-.12-2.33-.21-4.76-.25-7.41-2.79-.37-5.25-.63-7.47-.79-8.32,12-16.33,13.8-20.4,13.8-5.28,0-9.49-3.06-10-7.12a262.53,262.53,0,0,0-2.84,33.76V96.4c-.05,2.77-1.16,5.74-3.51,5.74a4.15,4.15,0,0,1-3-1.64C297.34,89.51,297,36.19,297,30.14c0-6.48.17-11.93.47-15.46a24.38,24.38,0,0,1-16.62,6.83,17.35,17.35,0,0,1-2.12-.09,2.27,2.27,0,0,1-2-2.15A2.13,2.13,0,0,1,279,17.15c.35,0,.69,0,1,.05s.55,0,.83,0c10.7,0,17.22-9.28,19-12.12,1.33-2.25,4.84-3.26,7.71-3.26,4,0,6.74,1.75,6.74,4.36a4.54,4.54,0,0,1-.34,1.69c-2,5.17-4.13,24-4.13,45.44,0,7.21.26,14,.74,20.08,1.85-22.4,7.87-60.54,27.31-63.84a17.06,17.06,0,0,1,3.14-.29c9,0,14.64,7.49,14.64,19.54A45.4,45.4,0,0,1,350,50.08c1.45.12,3,.29,4.76.5C354.88,35.85,357.1,4,374.64,4c6.59,0,11,4.86,11,12.1,0,7.9-4.47,18.25-8.23,25.54-4.61,9-9.76,16.45-12.74,19.82.24,30.27,4.6,31.81,5.48,31.81,3,0,8.73-10.72,14.72-34.67a23.25,23.25,0,0,1-.83-6c0-6.33,2.84-11.06,7.77-13a8.8,8.8,0,0,1,3.37-.69A7.11,7.11,0,0,1,401,41.84c2.88-4.67,5.62-5.41,7.07-5.41A3.88,3.88,0,0,1,412,40.59a6.3,6.3,0,0,1-.32,2,159.77,159.77,0,0,0-2.19,24.78c0,10.17,1.62,13,2.59,13.74a.63.63,0,0,0,.3.13c.33,0,3.29-.61,8.09-21.65a43.67,43.67,0,0,1-.62-7.41c0-1.38.07-2.81.2-4.25.62-5.56,3.45-6.39,5.08-6.39,2.77,0,5.82,2.56,5.82,4.9,0,0,0,.07,0,.1-.05.53-.12,1.09-.18,1.67a82.49,82.49,0,0,0-.66,9.37c0,4.33.61,7.51,1.87,9.71,1,1.76,1.61,1.85,1.72,1.85.87,0,3.14-2.27,5.22-23.35.11-1.11.2-1.93.25-2.34a2,2,0,0,1,.22-.74,4.69,4.69,0,0,1,4.71-3.44c3,0,6.49,2.22,6.59,5.09l.08,1.46c.25,4.83.58,11.28.64,18.52a31.85,31.85,0,0,0,7.42-10.54,2.25,2.25,0,0,1,2.12-1.66,2.37,2.37,0,0,1,2.31,2.31,1.84,1.84,0,0,1-.19.91c-2,5.42-5.88,10.51-11.65,15.47C451.25,116.76,430.92,129,418.89,129Zm21.35-50.18c-9.12,5.12-31.79,19.35-31.79,34.19,0,5.45,3.71,9.25,9,9.25C426.48,122.3,439.83,110.7,440.24,78.86Zm-43-34.77a6.22,6.22,0,0,0-.89,1.44A38.79,38.79,0,0,0,393.9,53a46.06,46.06,0,0,0-.86,7.68,7,7,0,0,0,.34,2.65,6.84,6.84,0,0,0,1-1.39c1-2,1.81-5.33,2.57-8.57.43-1.85.84-3.6,1.29-5.08,0-.21-.08-.45-.12-.73A16.44,16.44,0,0,0,397.26,44.09ZM333.44,54.3C325.15,55.13,322,58.13,322,60c0,.85.77,1.39,2,1.39S328.76,60.82,333.44,54.3Zm2.87-36.76c-9.63,0-15.5,19.57-18.76,39.55,2.41-5.09,11-7.14,18.7-7.32a51.23,51.23,0,0,0,5.85-22.25c0-3.38-.58-9.16-4.46-9.85A11,11,0,0,0,336.31,17.54Zm41.27-7.83c-1.08,0-2.37,1.16-3.64,3.16-5.38,8.38-8.57,29.1-9.18,40.6,5.85-9.42,15.58-26.7,15.58-37.44C380.34,12.56,379.11,9.73,377.58,9.71Z"/><path class="cls-8" d="M307.48,2.85c3,0,5.74,1.08,5.74,3.36A3.54,3.54,0,0,1,313,7.52c-2.2,5.74-4.21,25.43-4.21,45.82a210.71,210.71,0,0,0,2.05,31.49c1-24.89,6.32-70.72,27.17-74.27a16.55,16.55,0,0,1,3-.27c9.33,0,13.64,8.33,13.64,18.54A44.45,44.45,0,0,1,348.38,51c2.27.16,4.74.42,7.41.76v-.22c0-24.36,5-46.48,18.85-46.48,6,0,10,4.36,10,11.1,0,13.84-14.65,38-21,45,.16,23.13,2.74,33.19,6.48,33.19,4.32,0,10.22-13.45,15.75-35.68a22.46,22.46,0,0,1-.86-6c0-5.16,2-10.06,7.14-12.06a7.79,7.79,0,0,1,3-.62,6.31,6.31,0,0,1,5.86,3.89c2.47-4.66,5.09-6.39,7.05-6.39A2.88,2.88,0,0,1,411,40.59a5.13,5.13,0,0,1-.27,1.65,158.84,158.84,0,0,0-2.24,25.1c0,6.78.73,12.75,3,14.53a1.54,1.54,0,0,0,.92.34c3.39,0,7-13.38,9.11-22.63a43,43,0,0,1-.64-7.43c0-1.46.08-2.89.19-4.16.47-4.13,2.24-5.48,4.09-5.48,2.35,0,4.82,2.2,4.82,3.9a101.71,101.71,0,0,0-.85,11.14c0,3.77.46,7.51,2,10.21,1,1.66,1.81,2.35,2.59,2.35,4.47,0,6.09-24,6.47-26.59a1.23,1.23,0,0,1,.15-.47,3.72,3.72,0,0,1,3.78-2.81c2.62,0,5.51,2,5.59,4.12.27,5.28.73,13.3.73,22.24a34.51,34.51,0,0,0,9.33-12.45c.31-.65.5-1,1.2-1a1.38,1.38,0,0,1,1.31,1.31,1,1,0,0,1-.08.47c-2.35,6.16-6.67,11.14-11.76,15.45,0,42.44-17.84,57.7-31.49,57.7-8.51,0-15.41-5.89-15.41-14.84,0-10.56,9.67-25.36,37.73-39.66-.12-5-.35-9.83-.62-14.22-1.35,7.28-3.66,14.26-8.25,14.26-1.65,0-3.62-.93-5.89-3A14.7,14.7,0,0,1,423,65.12c-2.42,10.16-6.44,22-12.22,22a3.8,3.8,0,0,1-1.15-.16c-8.06-2.12-9.29-24.36-9.29-31.18l0-1.46c-.23.88-.47,1.77-.66,2.66-.85,3.39-2.2,10-6.36,10.48l-.38,0c-2,0-3.59-1.73-4.55-3.28a16.88,16.88,0,0,1-1-1.78c-5.58,22.87-13.31,38.63-19.78,38.63-5.43,0-10-11.14-11.52-38.62-.15-2.75-.23-5.49-.27-8.22-3.29-.46-6.27-.78-9-.95C339.86,63.6,332.54,67.1,327,67.1c-5.39,0-9.09-3.35-9.09-7,0-4.36,5.2-9.17,19-9.33a52.18,52.18,0,0,0,6.25-23.24c0-5.78-1.58-10.18-5.28-10.83a10.29,10.29,0,0,0-1.51-.15c-18.38,0-23.2,62.05-23.2,78.2V96.4c0,2.27-.89,4.74-2.51,4.74a3.33,3.33,0,0,1-2.23-1.31C300.43,91.35,298,53.73,298,30.14c0-8.71.31-15.53.81-18.23-3.66,4.05-9.68,8.6-18,8.6a17.23,17.23,0,0,1-2-.08,1.28,1.28,0,0,1-1.15-1.16A1.13,1.13,0,0,1,279,18.15c.65,0,1.23.08,1.85.08,11.49,0,18.23-10,19.81-12.6,1.08-1.81,4.09-2.78,6.86-2.78m56.17,54.23c5.13-7.94,17.69-28.67,17.69-41,0-4-1.5-7.32-3.77-7.32-1.31,0-2.86,1.08-4.47,3.62-6.44,10-9.45,35.58-9.45,44.75m29.62,7.36h0c.74,0,1.66-1.54,1.93-2,1.74-3.35,2.74-10,4-14.07-.27-1.27-.66-5.39-1.93-5.39-.46,0-1.08.58-1.85,2.16a38.76,38.76,0,0,0-2.54,7.67,46.9,46.9,0,0,0-.89,7.9c0,2,.31,3.7,1.23,3.77M324,62.36c2.73,0,7-2.31,11.45-9.21C324.9,53.69,321,57.43,321,60c0,1.35,1.12,2.39,3,2.39m93.49,60.94c9.94,0,23.78-12.41,23.78-45.94v-.2c-25.36,13.76-33.8,27.14-33.8,35.89,0,6.32,4.39,10.25,10,10.25M307.48.85c-2.92,0-6.93,1-8.58,3.75S291,16.23,280.81,16.23c-.26,0-.51,0-.77,0s-.68-.05-1.08-.05a3.11,3.11,0,0,0-3.23,3.12,3.27,3.27,0,0,0,2.9,3.14,18.18,18.18,0,0,0,2.26.1A24.74,24.74,0,0,0,296.35,17c-.2,3.44-.31,8-.31,13.16,0,6.09.3,59.77,10.87,71.06a5.06,5.06,0,0,0,3.69,1.94c2.63,0,4.44-2.7,4.51-6.71V94.74a245.12,245.12,0,0,1,2.27-30.06A11.68,11.68,0,0,0,327,69.1c4.21,0,12.43-1.81,20.89-13.76,1.82.14,3.8.35,6,.63.05,2.33.13,4.49.24,6.58,1.53,27.26,5.95,40.51,13.52,40.51,9.7,0,17.33-23.67,20.61-35.83A6.63,6.63,0,0,0,393,69.49h.2l.38,0a7,7,0,0,0,5.29-3.84c.91,9.15,3.4,21.44,10.24,23.28a6.06,6.06,0,0,0,1.69.23c5.14,0,9.38-6.12,12.91-18.66a14,14,0,0,0,1.4,1.55c2.55,2.37,5,3.58,7.26,3.58a7,7,0,0,0,1-.08c-9.88,5.68-17.62,11.7-23.07,18-5.78,6.64-8.83,13.47-8.83,19.74,0,9.76,7.32,16.84,17.41,16.84,8.38,0,16.58-5,22.52-13.81,7.07-10.45,10.85-26,11-45,5.68-5,9.48-10.07,11.6-15.6a2.87,2.87,0,0,0,.24-1.24,3.36,3.36,0,0,0-3.31-3.31,3.21,3.21,0,0,0-3,2.19l0,.09a28.87,28.87,0,0,1-5.52,8.47c-.1-6.26-.39-11.83-.62-16.12l-.07-1.48c-.12-3.43-4.11-6-7.59-6a5.7,5.7,0,0,0-5.64,4.07,2.85,2.85,0,0,0-.28,1c-.06.44-.14,1.22-.25,2.34-1.66,16.74-3.39,21.13-4.28,22.25a6.65,6.65,0,0,1-.81-1.16c-1.15-2-1.73-5.11-1.73-9.2a83.63,83.63,0,0,1,.65-9.26c.07-.58.13-1.15.19-1.68,0-.07,0-.13,0-.2,0-2.92-3.44-5.9-6.82-5.9-1.58,0-5.34.71-6.07,7.25-.14,1.52-.21,3-.21,4.39a45.56,45.56,0,0,0,.6,7.38c-3.65,15.94-6.2,19.67-7,20.5-.6-.79-2-3.57-2-12.69a162.3,162.3,0,0,1,2.16-24.55,7.18,7.18,0,0,0,.35-2.2,4.85,4.85,0,0,0-4.86-5.16c-1.53,0-4.3.68-7.19,4.78a8.16,8.16,0,0,0-5.72-2.28,9.92,9.92,0,0,0-3.76.77c-5.31,2.07-8.38,7.15-8.38,13.91a24.63,24.63,0,0,0,.79,6C377,86.08,371.53,92.28,370.17,92.28c-.05,0-4.21-1.32-4.47-30.44,6.52-7.58,21-31.36,21-45.73,0-7.83-4.83-13.1-12-13.1-5.08,0-12.06,2.68-16.5,15.45a57.57,57.57,0,0,0-1.78,6.28c-1.17-10.25-6.86-16.45-15.42-16.45a18.33,18.33,0,0,0-3.33.3c-10,1.7-17.58,12-22.62,30.58a167.75,167.75,0,0,0-4.15,21.39q-.09-3.51-.09-7.22c0-21.26,2.11-39.94,4.06-45.09a5.38,5.38,0,0,0,.41-2c0-3.21-3.11-5.36-7.74-5.36Zm58.59,48.51c.37-4.1,1-9,1.86-14,1.78-10.06,4.21-17.86,6.85-22,1.23-1.93,2.27-2.65,2.81-2.7s1.75,1.86,1.75,5.32c0,9.28-7.79,24.07-13.27,33.33Zm-46.94,4.23c3.37-18.49,9-35.05,17.18-35.05a8.09,8.09,0,0,1,1.2.13c3.23.57,3.59,6.38,3.59,8.85a50.22,50.22,0,0,1-5.46,21.27c-8.92.27-13.82,2.42-16.51,4.8Zm32.48-4.37A47.07,47.07,0,0,0,354,43.66c-.09,1.88-.15,3.82-.17,5.8l-2.19-.24Zm42.44,10.91a47.31,47.31,0,0,1,.83-6.94,39.23,39.23,0,0,1,2.06-6.49l.17,1c0,.18.06.35.08.51-.43,1.46-.82,3.14-1.24,4.92a63.53,63.53,0,0,1-1.9,7ZM324,60.36c-.39,0-1-.1-1-.39,0-.92,2-3.28,8.13-4.35-2.91,3.44-5.5,4.74-7.16,4.74Zm113.3,13a12.64,12.64,0,0,0,1.85-2.6c0,.54,0,1.07.05,1.6l-1.9,1Zm-19.81,48c-4.8,0-8-3.32-8-8.25,0-3.71,2.2-16.71,29.75-32.46-.84,29.8-13.28,40.71-21.73,40.71Z"/></g></g></svg>