<svg id="letsplaybingo-logo" xmlns="http://www.w3.org/2000/svg" viewBox="0 0 429.83 183.69"><g id="letsplay"><path d="M8.49,66.73H37.72v5.16H2.89V1h5.6Z"/><path d="M81.38,37.94H53.86V66.73H85.52v5.16H48.31V1h37V6.23H53.86V32.78H81.38Z"/><path d="M139.79,6.23H119.63V71.89H114V6.23H93.91V1h45.88Z"/><path d="M153.16,18.92h-5.29L153.24.08h6.49Z"/><path d="M200.31,54.45q0-5.94-3.38-9.35t-12.64-6.52q-9.25-3.12-13.59-7A16.78,16.78,0,0,1,165,18.36a17.1,17.1,0,0,1,5.6-13.25Q176.2,0,185.06,0q9.06,0,14.81,5.94t5.75,15.3H200q0-7.17-4-11.57T185.06,5.26q-6.72,0-10.59,3.63a12.27,12.27,0,0,0-3.87,9.38A11.45,11.45,0,0,0,174.25,27q3.66,3.42,11.64,6.07A48.51,48.51,0,0,1,198,38.6a18.21,18.21,0,0,1,6,6.7,19.77,19.77,0,0,1,2,9.06q0,8.32-5.63,13.42t-14.88,5.09a25.25,25.25,0,0,1-11.37-2.56A19.21,19.21,0,0,1,166,63a21.46,21.46,0,0,1-2.89-11.32h5.55q0,7.5,4.53,11.79t12.22,4.28q6.74,0,10.79-3.6A12.26,12.26,0,0,0,200.31,54.45Z"/><path d="M246.53,43.06V71.89H241V1h20.6Q271,1,276.39,6.62t5.41,15.54q0,10.08-5.24,15.49t-15.07,5.41Zm0-5.21h15q7,0,10.84-4.07t3.82-11.52q0-7.46-3.87-11.74T261.63,6.23h-15.1Z"/><path d="M298.68,66.73H327.9v5.16H293.08V1h5.6Z"/><path d="M374.06,52.07h-26.6l-6,19.82h-5.79L358.23,1h5.16L386,71.89h-5.8Zm-25-5.21h23.38l-11.69-38Z"/><path d="M405.77,39.55,423.45,1h6.38L408.49,45.2V71.89h-5.55V45.2L381.66,1h6.52Z"/></g><g id="bingo"><path d="M0,182.33V83.55H34.6q18,0,27.27,6.89t9.3,20.18a22.36,22.36,0,0,1-3.73,12.79,21.57,21.57,0,0,1-10.38,8.11,20.85,20.85,0,0,1,12,7.66,22.67,22.67,0,0,1,4.38,14.12q0,14.23-9.1,21.57T38.4,182.33Zm20.35-57.39H35.41q15.41-.27,15.4-12.28,0-6.72-3.9-9.67T34.6,100H20.35Zm0,14.38V166H37.79Q45,166,49,162.56a11.76,11.76,0,0,0,4-9.47q0-13.56-14-13.77Z"/><path d="M107.82,182.33H87.47V83.55h20.35Z"/><path d="M205.26,182.33H184.9l-39.61-65v65H124.93V83.55h20.36L185,148.68V83.55h20.29Z"/><path d="M299.23,169.85q-5.5,6.59-15.54,10.21a65,65,0,0,1-22.25,3.63,44.1,44.1,0,0,1-22.49-5.6A37.4,37.4,0,0,1,224,161.84q-5.25-10.65-5.39-25v-6.72q0-14.79,5-25.61A36.88,36.88,0,0,1,238,87.93q9.39-5.73,22-5.73,17.58,0,27.48,8.38T299.23,115H279.42q-1.37-8.47-6-12.41t-12.78-3.94q-10.38,0-15.81,7.81t-5.5,23.2v6.31q0,15.54,5.91,23.47t17.3,7.94q11.46,0,16.35-4.89v-17H260.35v-15h38.88Z"/><path d="M394.39,135.18q0,14.59-5.15,25.58a38.84,38.84,0,0,1-14.76,17,43.61,43.61,0,0,1-43.93.07,39.29,39.29,0,0,1-14.92-16.86,57.86,57.86,0,0,1-5.36-25.21v-4.88q0-14.58,5.26-25.68a39.14,39.14,0,0,1,14.85-17,43.59,43.59,0,0,1,43.9,0,39.23,39.23,0,0,1,14.86,17q5.25,11.1,5.25,25.61Zm-20.62-4.48q0-15.52-5.56-23.6T352.33,99q-10.24,0-15.81,8t-5.63,23.37v4.82q0,15.13,5.57,23.48t16,8.34q10.25,0,15.74-8t5.56-23.44Z"/><path d="M416.75,162.73a11,11,0,0,1,8,2.91,10,10,0,0,1,3,7.47,9.84,9.84,0,0,1-3,7.39,11,11,0,0,1-8,2.92,10.87,10.87,0,0,1-7.9-2.92,9.84,9.84,0,0,1-3-7.39,10,10,0,0,1,3-7.43A10.81,10.81,0,0,1,416.75,162.73ZM424.89,152H408.61l-2.3-68.46H427.2Z"/></g></svg>