<?xml version="1.0" encoding="UTF-8"?>
<svg xmlns="http://www.w3.org/2000/svg" id="arrow-circle-down" viewBox="0 0 24 24" width="512" height="512"><g><path d="M24,18.5V5.5A5.506,5.506,0,0,0,18.5,0H5.5A5.506,5.506,0,0,0,0,5.5v13A5.506,5.506,0,0,0,5.5,24h13A5.506,5.506,0,0,0,24,18.5ZM5.5,21A2.5,2.5,0,0,1,3,18.5V5.5A2.5,2.5,0,0,1,5.5,3h13A2.5,2.5,0,0,1,21,5.5v13A2.5,2.5,0,0,1,18.5,21Z"/><path d="M11.185,15.449,9.269,13.5H17.5a1.5,1.5,0,0,0,0-3H9.269l1.916-1.949a1.5,1.5,0,1,0-2.14-2.1L6,9.55a3.524,3.524,0,0,0,0,4.9l3.048,3.1a1.5,1.5,0,1,0,2.14-2.1Z"/></g></svg>
