<?xml version="1.0" encoding="UTF-8"?>
<svg xmlns="http://www.w3.org/2000/svg" id="Layer_1" data-name="Layer 1" viewBox="0 0 24 24" width="512" height="512"><path d="M12,24C5.383,24,0,18.617,0,12S5.383,0,12,0s12,5.383,12,12-5.383,12-12,12Zm0-21C7.038,3,3,7.038,3,12s4.038,9,9,9,9-4.038,9-9S16.962,3,12,3Zm2,14.5v-6c0-.536-.286-1.031-.75-1.299-.464-.269-1.036-.269-1.5,0l-3.464,2c-.717,.414-.963,1.332-.549,2.049,.415,.718,1.331,.966,2.049,.549l1.214-.701v3.402c0,.829,.671,1.5,1.5,1.5s1.5-.671,1.5-1.5Z"/></svg>
