<?xml version="1.0" encoding="UTF-8"?>
<svg xmlns="http://www.w3.org/2000/svg" id="arrow-circle-down" viewBox="0 0 24 24" width="512" height="512"><path d="M18.5,24H5.5A5.506,5.506,0,0,1,0,18.5V5.5A5.506,5.506,0,0,1,5.5,0h13A5.506,5.506,0,0,1,24,5.5v13A5.506,5.506,0,0,1,18.5,24ZM5.5,3A2.5,2.5,0,0,0,3,5.5v13A2.5,2.5,0,0,0,5.5,21h13A2.5,2.5,0,0,0,21,18.5V5.5A2.5,2.5,0,0,0,18.5,3Zm.769,7.6,5.087,5.154a.9.9,0,0,0,1.288,0L17.731,10.6a.924.924,0,0,0-.644-1.575H6.913A.924.924,0,0,0,6.269,10.6Z"/></svg>
