<?xml version="1.0" encoding="UTF-8"?>
<svg xmlns="http://www.w3.org/2000/svg" id="Layer_1" data-name="Layer 1" viewBox="0 0 24 24" width="512" height="512"><path d="M16.74,10.475c.559,.566,.158,1.525-.638,1.525h-2.602v4.5c0,.829-.672,1.5-1.5,1.5s-1.5-.671-1.5-1.5v-4.5h-2.602c-.795,0-1.196-.959-.638-1.525l4.188-4.243c.304-.308,.8-.308,1.104,0l4.188,4.243Zm7.26-4.975v13c0,3.033-2.468,5.5-5.5,5.5H5.5c-3.032,0-5.5-2.467-5.5-5.5V5.5C0,2.467,2.468,0,5.5,0h13c3.032,0,5.5,2.467,5.5,5.5Zm-3,0c0-1.378-1.121-2.5-2.5-2.5H5.5c-1.379,0-2.5,1.122-2.5,2.5v13c0,1.378,1.121,2.5,2.5,2.5h13c1.379,0,2.5-1.122,2.5-2.5V5.5Z"/></svg>
