<?xml version="1.0" encoding="UTF-8"?>
<svg xmlns="http://www.w3.org/2000/svg" id="arrow-circle-down" viewBox="0 0 24 24" width="512" height="512"><g><path d="M5.5,24h13A5.506,5.506,0,0,0,24,18.5V5.5A5.506,5.506,0,0,0,18.5,0H5.5A5.506,5.506,0,0,0,0,5.5v13A5.506,5.506,0,0,0,5.5,24ZM3,5.5A2.5,2.5,0,0,1,5.5,3h13A2.5,2.5,0,0,1,21,5.5v13A2.5,2.5,0,0,1,18.5,21H5.5A2.5,2.5,0,0,1,3,18.5Z"/><path d="M8.551,11.185,10.5,9.269V17.5a1.5,1.5,0,0,0,3,0V9.269l1.949,1.916a1.5,1.5,0,1,0,2.1-2.14L14.45,6a3.524,3.524,0,0,0-4.9,0l-3.1,3.048a1.5,1.5,0,1,0,2.1,2.14Z"/></g></svg>
