<?xml version="1.0" encoding="UTF-8"?>
<svg xmlns="http://www.w3.org/2000/svg" id="Layer_1" data-name="Layer 1" viewBox="0 0 24 24" width="512" height="512"><path d="M12,0C5.383,0,0,5.383,0,12s5.383,12,12,12,12-5.383,12-12S18.617,0,12,0Zm0,21c-4.962,0-9-4.038-9-9S7.038,3,12,3s9,4.038,9,9-4.037,9-9,9Zm4.754-10.511c.553,.561,.156,1.511-.632,1.511h-2.623v4.5c0,.829-.671,1.5-1.5,1.5s-1.5-.671-1.5-1.5v-4.5h-2.623c-.788,0-1.185-.95-.632-1.511l4.202-4.258c.304-.308,.8-.308,1.104,0l4.202,4.258Z"/></svg>
