<?xml version="1.0" encoding="UTF-8"?>
<svg xmlns="http://www.w3.org/2000/svg" id="Layer_1" data-name="Layer 1" viewBox="0 0 24 24" width="512" height="512"><path d="M12,24C5.383,24,0,18.617,0,12S5.383,0,12,0s12,5.383,12,12-5.383,12-12,12Zm0-21C7.038,3,3,7.038,3,12s4.038,9,9,9,9-4.038,9-9S16.963,3,12,3Zm.982,10.92c.608-.207,1.018-.778,1.018-1.42V6.5c0-.829-.672-1.5-1.5-1.5s-1.5,.671-1.5,1.5v1.586c-.506-.648-1.441-.769-2.096-.266-.657,.505-.78,1.446-.275,2.104l2.682,3.49c.29,.376,.732,.586,1.19,.586,.161,0,.324-.026,.482-.08Z"/></svg>
