<?xml version="1.0" encoding="UTF-8"?>
<svg xmlns="http://www.w3.org/2000/svg" id="Layer_1" data-name="Layer 1" viewBox="0 0 24 24" width="512" height="512"><path d="M18,20c-.384,0-.768-.146-1.061-.439l-4.938-4.939-4.94,4.939c-.586,.586-1.535,.586-2.121,0s-.586-1.536,0-2.121l6.001-6c.281-.281,.663-.439,1.061-.439h0c.397,0,.779,.158,1.061,.439l5.999,6c.586,.586,.586,1.536,0,2.121-.293,.293-.677,.439-1.061,.439Zm1.067-7.708c.582-.589,.576-1.539-.014-2.121l-3.922-3.873c-.837-.837-1.948-1.298-3.132-1.298s-2.295,.461-3.124,1.291l-3.93,3.88c-.59,.582-.596,1.532-.014,2.121,.581,.59,1.533,.595,2.121,.014l3.938-3.887c.537-.539,1.473-.546,2.025,.007l3.93,3.88c.292,.289,.673,.433,1.054,.433,.387,0,.774-.149,1.067-.446Z"/></svg>
