<?xml version="1.0" encoding="UTF-8"?>
<svg xmlns="http://www.w3.org/2000/svg" id="arrow-circle-down" viewBox="0 0 24 24" width="512" height="512"><path d="M5.5,0h13A5.506,5.506,0,0,1,24,5.5v13A5.506,5.506,0,0,1,18.5,24H5.5A5.506,5.506,0,0,1,0,18.5V5.5A5.506,5.506,0,0,1,5.5,0Zm13,21A2.5,2.5,0,0,0,21,18.5V5.5A2.5,2.5,0,0,0,18.5,3H5.5A2.5,2.5,0,0,0,3,5.5v13A2.5,2.5,0,0,0,5.5,21Zm-.769-7.6L12.644,8.25a.9.9,0,0,0-1.288,0L6.269,13.4a.924.924,0,0,0,.644,1.575H17.087A.924.924,0,0,0,17.731,13.4Z"/></svg>
