<?xml version="1.0" encoding="UTF-8"?>
<svg xmlns="http://www.w3.org/2000/svg" id="arrow-circle-down" viewBox="0 0 24 24" width="512" height="512"><path d="M23.677,12.789l-4.011,3.958a.978.978,0,0,1-1.666-.7V13.5H13.5V18h2.535a.979.979,0,0,1,.7,1.666l-3.959,4.011a1.086,1.086,0,0,1-1.546,0L7.268,19.666A.979.979,0,0,1,7.965,18H10.5V13.5H6v2.536a.979.979,0,0,1-1.666.7L.324,12.773a1.086,1.086,0,0,1,0-1.546l4.01-3.958A.979.979,0,0,1,6,7.965V10.5h4.5V6H7.965a.979.979,0,0,1-.7-1.666L11.227.324a1.086,1.086,0,0,1,1.546,0l3.959,4.011A.979.979,0,0,1,16.035,6H13.5v4.5H18V7.981a.979.979,0,0,1,1.666-.7l4.011,3.959A1.086,1.086,0,0,1,23.677,12.789Z"/></svg>
