<?xml version="1.0" encoding="UTF-8"?>
<svg xmlns="http://www.w3.org/2000/svg" id="Layer_1" data-name="Layer 1" viewBox="0 0 24 24" width="512" height="512"><path d="M12,24C5.383,24,0,18.617,0,12S5.383,0,12,0s12,5.383,12,12-5.383,12-12,12Zm0-21C7.037,3,3,7.038,3,12s4.037,9,9,9,9-4.038,9-9S16.963,3,12,3Zm.689,10.414l2.682-3.49c.505-.657,.382-1.599-.275-2.104-.652-.501-1.59-.382-2.096,.266v-1.586c0-.829-.672-1.5-1.5-1.5s-1.5,.671-1.5,1.5v6c0,.643,.409,1.213,1.018,1.42,.158,.054,.321,.08,.482,.08,.457,0,.9-.209,1.189-.586Z"/></svg>
