<?xml version="1.0" encoding="UTF-8"?>
<svg xmlns="http://www.w3.org/2000/svg" id="Layer_1" data-name="Layer 1" viewBox="0 0 24 24" width="512" height="512"><path d="M12,19c-1.183,0-2.295-.461-3.131-1.297l-3.922-3.873c-.59-.582-.596-1.532-.014-2.121,.583-.59,1.532-.595,2.121-.014l3.929,3.88c.554,.554,1.488,.546,2.026,.007l3.938-3.887c.588-.582,1.54-.577,2.121,.014,.582,.589,.576,1.539-.014,2.121l-3.93,3.88c-.829,.83-1.94,1.291-3.124,1.291Zm1.062-6.439l5.999-6c.586-.586,.586-1.536,0-2.121-.586-.586-1.535-.586-2.121,0l-4.938,4.939L7.061,4.439c-.586-.586-1.536-.586-2.121,0-.586,.586-.586,1.536,0,2.121l6.001,6c.281,.281,.663,.439,1.061,.439s.779-.158,1.061-.439Z"/></svg>
