<?xml version="1.0" encoding="UTF-8"?>
<svg xmlns="http://www.w3.org/2000/svg" id="Layer_1" data-name="Layer 1" viewBox="0 0 24 24" width="512" height="512"><path d="M12,24C5.383,24,0,18.617,0,12S5.383,0,12,0s12,5.383,12,12-5.383,12-12,12Zm0-21C7.038,3,3,7.038,3,12s4.038,9,9,9,9-4.037,9-9S16.962,3,12,3Zm-.252,13.332l2-3c.164-.246,.252-.536,.252-.832V6.5c0-.829-.671-1.5-1.5-1.5s-1.5,.671-1.5,1.5v5.546l-1.748,2.622c-.459,.689-.273,1.62,.416,2.08,.256,.171,.545,.252,.831,.252,.485,0,.96-.234,1.25-.668Z"/></svg>
