<?xml version="1.0" encoding="UTF-8"?>
<svg xmlns="http://www.w3.org/2000/svg" id="Layer_1" data-name="Layer 1" viewBox="0 0 24 24" width="512" height="512"><path d="M12,24C5.383,24,0,18.617,0,12S5.383,0,12,0s12,5.383,12,12-5.383,12-12,12Zm0-21C7.038,3,3,7.038,3,12s4.038,9,9,9,9-4.038,9-9S16.962,3,12,3Zm1,14.5v-3.402l1.214,.701c.719,.416,1.635,.169,2.049-.549,.415-.717,.168-1.635-.549-2.049l-3.464-2c-.464-.269-1.036-.269-1.5,0-.464,.268-.75,.763-.75,1.299v6c0,.829,.671,1.5,1.5,1.5s1.5-.671,1.5-1.5Z"/></svg>
